<?xml version="1.0" encoding="UTF-8" standalone="no"?>
<svg
   xmlns:dc="http://purl.org/dc/elements/1.1/"
   xmlns:cc="http://creativecommons.org/ns#"
   xmlns:rdf="http://www.w3.org/1999/02/22-rdf-syntax-ns#"
   xmlns:svg="http://www.w3.org/2000/svg"
   xmlns="http://www.w3.org/2000/svg"
   width="155.83992mm"
   height="103.11257mm"
   viewBox="0 0 155.83992 103.11257"
   version="1.1"
   id="svg8">
  <path
     d="m 91.831419,94.64227 c -1.13636,-3.10573 -2.83325,-6.06482 -5.1793,-9.03175 -2.14742,-2.71574 -2.37117,-3.27578 -3.41141,-8.5385 -0.27684,-1.40064 -0.48464,-2.56532 -0.46175,-2.58821 0.0229,-0.0229 0.0416,-0.0245 0.0416,-0.004 0,0.0208 0.22684,1.18554 0.5041,2.5882 1.04662,5.29511 1.1914,5.65864 3.37502,8.47416 1.03118,1.32959 2.25404,3.11892 3.2679,4.78169 1.00146,1.64248 1.07294,1.44133 0.14168,-0.39872 -0.80635,-1.59322 -1.47821,-2.59158 -3.64883,-5.422 -1.39176,-1.81481 -1.75964,-2.80717 -2.58606,-6.9757 -0.80137,-4.04219 -0.84384,-4.16731 -1.89451,-5.58072 -1.36478,-1.835978 -2.87619,-3.096918 -6.55879,-5.471868 -10.47863,-6.75779 -12.67481,-8.80325 -12.47095,-11.61514 0.0708,-0.97602 0.40561,-1.50929 2.12013,-3.37657 2.62741,-2.8615 3.22966,-4.34178 2.75892,-6.78116 -0.24921,-1.29135 -0.0832,-1.99392 0.67182,-2.84257 0.75999,-0.85429 1.60826,-1.04989 2.05027,-0.47277 0.35737,0.46659 0.94037,1.0795 1.02685,1.0795 0.0372,0 -0.17434,-0.31712 -0.47008,-0.70472 -0.49605,-0.65014 -0.54202,-0.74686 -0.5936,-1.24883 -0.0307,-0.29926 -0.13196,-0.93599 -0.22489,-1.41495 -0.33453,-1.72398 -0.24483,-1.96559 0.97402,-2.62362 2.5075,-1.35376 2.73024,-3.23101 0.73865,-6.22545 -0.79644,-1.19748 -0.99346,-1.78212 -0.98997,-2.93776 0.007,-2.31976 0.80014,-2.90756 5.37365,-3.98249 1.94179,-0.45639 2.95598,-0.89515 7.30379,-3.15978 2.87376,-1.49685 3.29079,-1.93925 4.50185,-4.77577 0.95953,-2.24741 1.12475,-2.54407 1.77965,-3.19554 0.94374,-0.93878 2.0539,-1.57064 3.70848,-2.11073 1.62812,-0.5314501 1.55194,-0.4978601 5.05823,-2.2308101 4.476301,-2.21237 6.724031,-3.05316 9.881071,-3.69614 4.56214,-0.92915 10.02105,-0.71808 15.18026,0.58695 14.51154,3.67071 25.19795,16.2678601 27.04247,31.8776401 0.29419,2.4897 0.33679,3.17656 0.33613,5.41867 -0.002,7.49864 -1.99236,12.85434 -6.6461,17.88542 -4.23154,4.57464 -10.9753,8.01944 -15.70835,8.02404 -3.50726,0.003 -4.59555,0.38122 -4.98538,1.73073 -0.3336,1.154858 0.19127,4.237718 1.07086,6.289708 0.30271,0.70621 0.25775,0.30975 -0.21964,-1.93632 -0.26074,-1.22681 -0.45907,-2.32642 -0.44072,-2.44357 0.0312,-0.19925 0.0342,-0.19731 0.046,0.0302 0.026,0.49942 0.87262,4.06928 1.29094,5.44368 0.74494,2.44752 0.92892,3.11085 0.89966,3.24375 -0.0547,0.24826 -0.92081,-1.71631 -1.75932,-3.99049 -0.13625,-0.36953 -0.29571,-0.76171 -0.35434,-0.87149 l -0.10659,-0.19961 -0.381,0.17376 c -0.20955,0.0956 -0.81435,0.37755 -1.344,0.62664 -0.52965,0.24908 -0.97912,0.45288 -0.99882,0.45288 -0.0197,0 -0.50324,0.2667 -1.07453,0.59267 -0.57129,0.32596 -1.07971,0.59266 -1.12982,0.59266 -0.0824,0 -0.32693,-0.36054 -1.75057,-2.58065 -2.19282,-3.41963 -4.7799,-5.253978 -7.95435,-5.639948 -2.41462,-0.29359 -11.294021,0.80066 -20.037911,2.469368 -3.2228,0.61505 -3.62083,1.05506 -3.63247,4.01557 -0.0228,5.78981 2.49659,10.61736 6.13013,11.74651 1.42781,0.44369 2.24406,0.24038 3.683,-0.91739 0.44239,-0.35594 1.14724,-0.87814 1.56634,-1.16044 1.85809,-1.25157 2.00963,-1.50953 2.06995,-3.52351 0.0868,-2.89662 0.46165,-1.70124 0.688221,2.19449 0.25544,4.39198 -0.554651,9.56734 -1.497551,9.56734 -0.16662,0 -0.15146,-0.3481 0.0893,-2.05047 0.2636,-1.86351 0.31122,-2.90817 0.1317,-2.8889 -0.0699,0.008 -0.48895,0.093 -0.93133,0.19003 -1.59797,0.35045 -4.80916,0.93265 -5.92721,1.07463 -1.41119,0.17919 -1.32902,0.0515 -0.83866,1.30324 0.53802,1.37342 0.83321,2.36974 0.89703,3.02763 0.0614,0.63306 0.007,0.66901 -0.19096,0.127 z m 7.80735,-4.78174 c 0.32799,-0.53069 0.457461,-3.86934 0.25043,-6.45776 -0.21194,-2.64973 -0.25657,-2.51764 -0.41724,1.23473 -0.0806,1.88206 -0.16959,3.85056 -0.1978,4.37444 -0.0515,0.95717 0.0916,1.29033 0.36461,0.84859 z M 88.704889,66.715342 c 4.51234,-0.59637 6.26387,-1.44369 9.42898,-4.56132 2.399011,-2.36304 2.637321,-2.69279 3.538721,-4.89651 0.53038,-1.29669 0.97625,-2.16509 1.55039,-3.01969 0.59038,-0.87876 0.9097,-1.48764 1.33349,-2.54272 0.59325,-1.47694 1.55649,-2.51906 2.0433,-2.21061 0.18281,0.11584 0.0481,0.51339 -0.45601,1.34557 -1.57835,2.60558 0.99497,4.12524 5.63279,3.32641 5.04348,-0.8687 7.96486,-2.61827 10.54246,-6.3137 1.77671,-2.54721 1.74395,-3.54985 -0.18127,-5.54696 -1.14463,-1.18736 -1.87163,-1.4946 -3.74126,-1.58106 -1.55308,-0.0718 -1.45109,-0.30607 0.15275,-0.35083 1.8479,-0.0516 2.85523,0.42808 4.2994,2.04719 1.52848,1.71364 1.60413,2.92949 0.3144,5.05262 -0.38468,0.63325 -0.39305,0.60887 0.31869,0.92748 4.87619,2.18277 12.8667,1.68938 17.32309,-1.06965 4.64667,-2.87683 8.00158,-6.73725 9.5399,-10.97734 0.26839,-0.73975 0.26871,-0.73304 -0.12634,-2.68312 C 146.73,16.441542 133.33483,4.6430319 116.27818,3.7664919 c -6.27632,-0.32254 -10.51206,0.74887 -18.356851,4.64325 -2.52249,1.25224 -2.94723,1.43187 -4.68678,1.9821401 -2.20414,0.69724 -3.49436,1.84706 -4.40187,3.92289 -1.88249,4.30602 -1.92378,4.35313 -5.37929,6.13715 -4.42297,2.28351 -5.02345,2.54208 -6.98829,3.00929 -4.47823,1.06486 -5.21604,1.57031 -5.31069,3.63823 -0.0566,1.23749 0.13057,1.80356 1.05502,3.19008 1.88209,2.82279 1.67343,4.89643 -0.61967,6.15843 -1.44938,0.79766 -1.39004,0.49345 -0.57488,2.94766 0.73903,2.22499 1.09185,3.00436 1.80807,3.99405 0.50096,0.69225 0.64912,1.02307 0.39415,0.88015 -0.29111,-0.16319 -1.73114,-1.55892 -2.35464,-2.28219 -0.89474,-1.03794 -1.26639,-1.04373 -2.21047,-0.0344 -0.77213,0.82546 -0.92568,1.47822 -0.6573,2.79414 0.48369,2.37154 -0.25429,4.138 -2.89349,6.92601 -1.72868,1.82615 -1.96652,2.25443 -1.96332,3.53542 0.006,2.38244 1.42477,3.91702 5.03534,5.44612 1.46818,0.62177 2.89857,1.32953 4.99534,2.47166 3.566,1.94246 4.37538,2.26861 7.747,3.12175 2.48354,0.62842 5.2935,0.7969 7.78933,0.46704 z m 23.682751,-14.0003 c -2.44992,-0.10082 -1.97134,-0.57996 0.59219,-0.59289 2.46196,-0.0124 4.2469,-1.62954 5.26834,-4.77304 0.62577,-1.92583 1.05952,-2.68427 1.8666,-3.26387 0.46317,-0.33263 0.46586,-0.35646 0.065,-0.57674 -0.66047,-0.36291 -1.20933,-0.48785 -2.15183,-0.48983 -1.05504,-0.002 -1.05243,-0.004 -0.8869,0.4839 0.15752,0.46399 0.0854,0.8412 -0.32685,1.70999 -0.5805,1.22329 -1.06433,1.06045 -1.23194,-0.41463 -0.0967,-0.851 -0.10716,-0.87621 -0.29802,-0.71781 -0.21585,0.17913 -0.0893,0.67002 0.47492,1.84257 0.64367,1.33762 0.77332,1.72545 0.77464,2.31731 0.005,2.0278 -2.48618,3.31513 -4.5795,2.36691 l -0.62666,-0.28385 -0.95106,0.106 c -3.1246,0.34826 -4.28235,-1.11689 -1.98943,-2.51766 0.75366,-0.46042 1.26955,-0.91613 2.21336,-1.9552 0.56805,-0.62539 1.13045,-0.67172 1.61342,-0.13293 0.30459,0.33978 1.25602,2.4176 1.25602,2.74299 0,0.43708 -0.0912,0.68469 -0.16968,0.46086 -0.0493,-0.14039 -0.16746,-0.16042 -1.06469,-0.1804 -1.18259,-0.0263 -1.36981,0.0215 -2.30047,0.58726 -0.84569,0.51413 -0.8759,0.60978 -0.16933,0.5362 1.72199,-0.17934 1.67135,-0.18206 2.35287,0.12629 1.17753,0.53276 2.4784,0.37356 3.2377,-0.39624 0.56049,-0.56823 0.50272,-0.84285 -0.37601,-1.78742 -2.46952,-2.65456 0.87632,-6.44648 4.58561,-5.19697 4.06287,1.36862 3.66088,5.31997 -0.80434,7.90612 -0.37253,0.21577 -1.05833,0.67809 -1.524,1.0274 -1.56992,1.17762 -1.65823,1.19702 -4.84991,1.06568 z m 4.9223,-1.33293 c 0.27264,-0.20004 0.82509,-0.55975 1.22766,-0.79935 2.96861,-1.76688 4.33068,-4.07074 3.4577,-5.84848 -0.88718,-1.80664 -3.99907,-2.65467 -5.92005,-1.6133 -0.6086,0.32992 -0.83729,0.62176 -0.25867,0.3301 0.53661,-0.2705 0.67564,-0.27627 0.92868,-0.0385 0.20315,0.19084 0.26178,0.0971 0.11307,-0.18077 -0.32022,-0.59833 1.97246,-0.54108 3.22908,0.0806 0.71314,0.35283 0.75187,0.40005 0.49448,0.6028 -0.68044,0.53597 -0.99632,0.85342 -1.17874,1.18461 l -0.20507,0.3723 0.40853,-0.45019 c 0.84155,-0.92737 1.41576,-1.10919 1.86081,-0.58925 1.30094,1.51987 0.0949,4.03835 -2.79053,5.82726 -0.63372,0.39288 -1.33925,0.9158 -1.82034,1.34917 -0.37349,0.33644 -0.18795,0.24356 0.45339,-0.22698 z m -3.28751,-0.62591 c 2.1408,-0.39575 2.86948,-2.11758 1.80103,-4.25569 -0.45271,-0.90595 -0.48456,-0.77572 -0.0502,0.2051 1.15722,2.6128 -1.03622,4.7697 -3.62062,3.56031 -0.65262,-0.3054 -0.90441,-0.32718 -2.13158,-0.18442 -1.29781,0.15097 -2.39322,-0.23601 -2.39322,-0.84547 0,-0.39987 1.35327,-1.46843 2.667,-2.1059 0.50155,-0.24338 0.89089,-0.59025 1.17204,-1.04419 0.0793,-0.12806 0.20046,-0.23284 0.26925,-0.23284 0.20547,0 0.14147,-0.16198 -0.0866,-0.21923 -0.36631,-0.0919 -0.6125,0.0357 -1.03218,0.53515 -0.71681,0.85302 -1.25404,1.32367 -2.05556,1.80075 -2.07704,1.23631 -1.38192,2.51276 1.26641,2.32549 1.48916,-0.10531 1.68663,-0.0908 2.17915,0.15963 0.36491,0.18557 0.87777,0.32357 1.4258,0.38365 0.0496,0.005 0.31482,-0.0316 0.58926,-0.0823 z m 0.92006,-6.39169 c 0.0926,-0.2412 0.0486,-0.33517 -0.0783,-0.16739 -0.0684,0.0904 -0.1243,0.19517 -0.1243,0.23283 0,0.12119 0.14952,0.0729 0.2026,-0.0654 z m -2.004,-0.51036 c -0.0327,-0.0327 -0.20228,-0.0826 -0.37692,-0.11101 -1.04979,-0.17064 1.21915,-2.3766 2.76115,-2.68453 0.38903,-0.0777 0.33141,0.0213 -0.34497,0.5927 -0.66977,0.5658 -0.85849,0.80822 -1.25386,1.61068 -0.28813,0.58479 -0.57585,0.80171 -0.7854,0.59216 z m -37.102931,-9.65183 c -0.0931,-0.0219 -0.25506,-0.0581 -0.35984,-0.0805 -0.41364,-0.0883 -0.19888,-0.26872 0.38873,-0.32662 1.15565,-0.11387 1.97113,-0.71457 2.71079,-1.9968 0.52182,-0.9046 0.6826,-0.37042 0.1898,0.63059 -0.59237,1.20329 -1.92438,2.00958 -2.92948,1.77329 z m 1.44618,-0.41386 c 0.49695,-0.24313 1.03629,-0.78504 1.30442,-1.3106 0.25719,-0.50414 0.16451,-0.61265 -0.14264,-0.167 -0.5947,0.86287 -1.66446,1.60424 -2.31481,1.60424 -0.0914,0 -0.16615,0.0434 -0.16615,0.0965 0,0.15782 0.82622,0.0181 1.31918,-0.2231 z m -2.80897,-1.71486 c -0.23466,-0.5891 -0.32892,-0.7291 -0.92296,-1.37084 -0.5325,-0.57527 -0.57303,-0.64274 -0.40081,-0.66722 0.42287,-0.0601 1.42557,0.86591 1.61224,1.48893 0.23006,0.7679 -0.0153,1.23494 -0.28847,0.54913 z m 0.0911,-0.62156 c -0.0605,-0.27564 -0.78925,-1.09294 -0.97448,-1.09294 -0.0524,0 0.0733,0.20003 0.27917,0.4445 0.20593,0.24448 0.44499,0.56716 0.53126,0.71707 0.18817,0.32699 0.24566,0.30294 0.16405,-0.0686 z m 16.17231,-5.06084 c -0.31455,-0.1429 -0.52784,-0.35258 -1.04723,-1.02957 -0.1687,-0.21989 -0.19284,-0.32396 -0.14914,-0.64285 0.05,-0.36491 0.0418,-0.38411 -0.20139,-0.46888 -0.49392,-0.17218 -0.45842,-0.9957 0.0943,-2.18813 l 0.37284,-0.80433 -0.004,-0.97367 c -0.004,-0.84551 -0.0399,-1.09068 -0.27464,-1.86267 -0.41985,-1.38047 -0.34784,-1.99673 0.27236,-2.33073 0.315,-0.16963 0.38179,-0.32203 0.19194,-0.43789 -0.48246,-0.29444 -0.51543,-1.26436 -0.0618,-1.81777 0.14335,-0.17488 0.18257,-0.18454 0.34553,-0.0851 0.15951,0.0973 0.20784,0.0903 0.36534,-0.0529 0.34582,-0.31449 0.54538,-0.37647 0.6404,-0.19892 0.0663,0.12382 0.2116,0.16802 0.65973,0.20062 1.64843,0.11993 6.71306,3.58056 6.71306,4.58699 0,0.12443 0.1726,0.42425 0.42595,0.73994 0.46273,0.57657 0.52329,0.74527 0.87716,2.4438 0.749801,3.59886 0.563631,4.16687 -0.65898,2.01067 -0.21634,-0.38155 -0.56252,-1.29512 -0.72482,-1.91278 -0.29475,-1.12176 -2.22242,-3.0144 -3.29751,-3.23759 -1.47949,-0.30713 -2.03316,0.32261 -1.22422,1.39242 0.4665,0.61693 0.75681,1.20939 0.87694,1.78962 0.0482,0.23283 0.16263,0.79812 0.25429,1.25619 0.18925,0.9459 0.48686,1.56411 0.90736,1.88484 0.66988,0.51095 0.13007,0.73773 -0.86756,0.36446 -0.3865,-0.1446 -0.627,-0.16487 -1.74691,-0.14717 -1.12057,0.0177 -1.395,-0.005 -2.00085,-0.1688 -0.74972,-0.20215 -0.83301,-0.19219 -0.94923,0.1135 -0.13441,0.35352 0.0556,0.76691 0.55298,1.20311 0.63679,0.55846 0.46903,0.74192 -0.34166,0.37363 z m 3.00639,-1.69639 0.381,-0.0637 -0.29633,-0.0558 c -0.16298,-0.0307 -0.41063,-0.0697 -0.55033,-0.0866 -0.1397,-0.017 0.003,-0.0366 0.3175,-0.0435 0.65018,-0.0144 0.65069,-0.0153 0.34664,-0.57352 -0.2769,-0.50838 -0.14017,-0.38964 0.16123,0.14002 0.16088,0.28272 0.19682,0.42179 0.13673,0.52916 -0.088,0.15728 0.20627,0.22542 0.30233,0.07 0.14498,-0.2346 -1.15741,-2.87996 -1.72208,-3.4978 -0.48586,-0.5316 -0.52304,-0.70556 -0.22054,-1.03196 0.42249,-0.45587 1.19018,0.46513 2.00074,2.40028 0.47333,1.13004 0.53861,0.87293 0.1077,-0.42423 -0.48869,-1.47112 -1.09291,-2.23341 -2.00625,-2.53112 -0.43958,-0.14328 -0.80906,-0.0559 -0.62563,0.14797 0.17635,0.19601 -0.0901,0.55068 -0.38299,0.50982 -0.28116,-0.0392 -0.22575,0.55555 0.0821,0.88132 l 0.21827,0.23096 -0.44041,0.46568 c -0.45045,0.47628 -0.85538,1.20825 -0.85686,1.54889 -8.4e-4,0.16036 -0.0468,0.1905 -0.29111,0.1905 -0.38537,0 -0.52781,0.1618 -0.59916,0.68056 -0.0744,0.54093 -0.0259,0.59273 0.19876,0.21206 0.20509,-0.34759 0.26276,-0.35662 0.77535,-0.12137 0.91941,0.42196 2.02456,0.57951 2.96333,0.42246 z m 6.519341,-0.4908 c 0,-0.33546 -0.307651,-2.05579 -0.594791,-3.32595 -0.24329,-1.07625 -0.34314,-1.3376 -0.64163,-1.67945 -0.37305,-0.42725 -0.54158,-0.69451 -0.54158,-0.8589 0,-1.1303 -5.61115,-4.78654 -6.93841,-4.52109 -0.19026,0.038 -0.26913,0.016 -0.30835,-0.0862 -0.073,-0.19023 -0.18403,-0.17259 -0.51822,0.0823 -0.20776,0.15847 -0.3465,0.20495 -0.49813,0.16689 -0.18062,-0.0453 -0.22755,-0.0111 -0.33386,0.24331 -0.42493,1.01699 0.0965,1.58001 2.04938,2.21299 1.87635,0.60817 5.09588,2.47559 5.66939,3.28841 0.0685,0.097 0.26933,0.37571 0.44636,0.61928 0.41189,0.56668 0.61559,0.99202 0.90295,1.88548 0.46588,1.44848 1.306891,2.71809 1.306891,1.97291 z m -5.503341,-0.70097 c 0,-0.63045 -1.39009,-3.25412 -1.80937,-3.41501 -0.14731,-0.0565 -0.39196,0.19339 -0.39196,0.40041 0,0.082 0.1743,0.34566 0.38734,0.586 0.22821,0.25747 0.58021,0.837 0.8568,1.41066 0.2582,0.53552 0.50766,1.0213 0.55436,1.0795 0.13632,0.16994 0.40283,0.1292 0.40283,-0.0616 z m 16.637001,31.10552 c 4.43789,-0.59916 7.39165,-2.04066 9.87348,-4.81846 2.2416,-2.50893 3.05744,-4.6203 2.33917,-6.05366 -0.23892,-0.47679 -1.42759,-1.87313 -1.88331,-2.21233 -0.1397,-0.10399 0.0744,0.15123 0.47575,0.56713 1.96846,2.0398 2.07165,3.08378 0.53536,5.41661 -1.89032,2.87042 -4.38595,4.92605 -7.07063,5.82401 -5.14546,1.72106 -8.7377,1.58941 -10.0079,-0.36676 -0.16035,-0.24693 -0.22614,-0.30652 -0.187,-0.16933 0.43986,1.54142 2.7347,2.24353 5.92508,1.81279 z M 82.605859,74.10294 c -0.31938,-1.70242 -2.96408,-4.261258 -7.32062,-7.082968 -3.2864,-2.12859 -8.46722,-5.70856 -9.73732,-6.72853 -2.11058,-1.69495 -3.06572,-3.34871 -3.03331,-5.252 l 0.0115,-0.67734 0.0613,0.889 c 0.16611,2.41057 1.18107,3.72403 4.95084,6.40691 2.29975,1.63668 5.35912,3.7204 7.53534,5.13225 4.08167,2.64805 5.7235,4.085458 7.10401,6.219518 0.34523,0.53367 0.62558,1.25228 0.52701,1.35085 -0.0233,0.0233 -0.0678,-0.0926 -0.0987,-0.25769 z m 41.566071,-3.442498 c 0.0316,-1.09482 0.38607,-1.72393 1.06664,-1.89306 0.20205,-0.0502 0.20127,-0.0477 -0.0171,0.055 -0.64236,0.30205 -0.90864,0.78927 -1.00454,1.83809 l -0.0658,0.719658 z m 2.44248,-2.17835 c 0.17462,-0.0183 0.46037,-0.0183 0.635,0 0.17462,0.0183 0.0317,0.0332 -0.3175,0.0332 -0.34925,0 -0.49213,-0.0149 -0.3175,-0.0332 z m 1.65432,-0.0858 c 0.29286,-0.0166 0.75006,-0.0164 1.016,0 0.26593,0.0168 0.0263,0.0303 -0.53249,0.0301 -0.5588,0 -0.77638,-0.0139 -0.48351,-0.0304 z m 1.7335,-0.0827 c 0.12871,-0.0195 0.31921,-0.0189 0.42334,0.001 0.10414,0.0201 -0.001,0.036 -0.234,0.0354 -0.23283,-8.5e-4 -0.31803,-0.0171 -0.18934,-0.0365 z m 1.03601,-0.15284 c 0.23283,-0.0599 0.49953,-0.10794 0.59267,-0.10688 0.0931,0.001 -0.0212,0.0509 -0.254,0.11074 -0.23284,0.0598 -0.49954,0.10794 -0.59267,0.10688 -0.0931,-10e-4 0.0212,-0.0509 0.254,-0.11074 z m 0.93133,-0.19833 c 0.0931,-0.0408 0.30269,-0.0983 0.46567,-0.12784 0.20343,-0.0369 0.24325,-0.0305 0.127,0.0204 -0.0931,0.0408 -0.30268,0.0983 -0.46567,0.12784 -0.20342,0.0369 -0.24324,0.0305 -0.127,-0.0204 z m 2.032,-0.63645 c 7.6221,-2.67753 13.6696,-8.56601 16.1835,-15.75796 0.24417,-0.6985 0.44608,-1.22707 0.44871,-1.1746 0.0103,0.20539 -0.76747,2.33265 -1.18734,3.24745 -2.5618,5.58144 -7.75712,10.57069 -13.62453,13.0841 -0.78979,0.33832 -2.84319,1.05955 -2.99494,1.05193 -0.0525,-0.003 0.4761,-0.20555 1.1746,-0.45092 z m -71.407981,-13.1332 c -0.0183,-0.50041 0.75632,-1.60025 2.23388,-3.17166 1.74711,-1.85807 2.5225,-3.18791 2.74356,-4.70536 0.054,-0.37098 0.0763,-0.42545 0.0839,-0.20527 0.0434,1.25883 -1.02765,3.13196 -2.9753,5.20362 -1.33106,1.41581 -1.77738,2.04014 -2.00812,2.8091 -0.0518,0.17256 -0.0734,0.19188 -0.0779,0.0696 z m 88.053361,-3.95139 c -0.005,-0.0312 0.0864,-0.4503 0.2022,-0.93133 0.11581,-0.48104 0.28611,-1.29371 0.37844,-1.80595 0.10074,-0.55881 0.14926,-0.72814 0.12133,-0.42333 -0.073,0.79683 -0.66048,3.4418 -0.70197,3.16061 z m 0.8136,-4.38828 c 0.0255,-0.39581 0.0606,-0.73554 0.0779,-0.75494 0.0573,-0.0642 0.0202,0.70591 -0.0527,1.09361 -0.052,0.27683 -0.0589,0.18424 -0.0252,-0.33867 z m -84.084101,-0.96493 c -0.2598,-1.46234 -0.13514,-2.10682 0.60375,-3.1213 0.34328,-0.47132 1.0988,-1.03861 1.57206,-1.1804 0.43944,-0.13166 0.44622,-0.16796 0.23801,-1.27408 -0.39425,-2.09452 -0.2076,-2.53814 1.41189,-3.35565 0.71741,-0.36215 1.06796,-0.69444 1.36979,-1.29845 0.14187,-0.28393 0.25796,-0.47078 0.25796,-0.41523 0,0.53238 -0.73779,1.35084 -1.61549,1.79214 -1.53042,0.76948 -1.73226,1.25341 -1.3481,3.23207 0.19707,1.01501 0.20851,1.24599 0.0637,1.28749 -1.93377,0.55446 -2.8828,2.1905 -2.4784,4.27252 0.0811,0.41732 0.1329,0.80218 0.1152,0.85525 -0.0177,0.0531 -0.10338,-0.30439 -0.19043,-0.79436 z m 84.232331,-2.67573 c -0.003,-2.14166 -0.0404,-3.16492 -0.1542,-4.17792 -0.0829,-0.73787 -0.13404,-1.35827 -0.11365,-1.37866 0.0475,-0.0475 0.21276,1.47108 0.31447,2.88958 0.0889,1.23958 0.095,3.69869 0.0119,4.78366 -0.0308,0.40302 -0.0566,-0.52832 -0.0585,-2.11666 z m -0.61699,-7.4137 c -0.10723,-0.63513 -0.17901,-1.17073 -0.15952,-1.19022 0.0489,-0.0489 0.42291,2.13979 0.38503,2.2534 -0.0168,0.0504 -0.11827,-0.42805 -0.22551,-1.06318 z m -0.83784,-3.86941 c -0.15013,-0.56974 -0.29408,-1.13114 -0.31989,-1.24756 l -0.0469,-0.21167 0.0901,0.20596 c 0.13558,0.31012 0.60751,2.11854 0.57665,2.20968 -0.0148,0.0437 -0.14976,-0.38666 -0.29988,-0.95641 z m -0.56683,-1.98942 c -2.65115,-8.56329 -8.8461,-16.36953 -16.55921,-20.8662601 -4.36862,-2.5469 -10.74341,-4.59266 -14.7575,-4.7359 -0.28038,-0.01 -0.30301,-0.0205 -0.1071,-0.0495 1.01326,-0.15 5.42185,0.74274 8.06895,1.63397 10.45208,3.51899 18.56672,11.3517201 22.6684,21.8808401 0.5165,1.32587 0.92448,2.53499 0.87279,2.58668 -0.0198,0.0198 -0.10362,-0.18268 -0.18633,-0.44987 z m -73.285881,-6.06686 c 1.78855,-0.46307 2.42033,-0.71477 4.65667,-1.85527 1.18745,-0.60558 2.62245,-1.33467 3.18889,-1.62021 2.02387,-1.02019 2.58182,-1.70423 3.8351,-4.7018 0.92904,-2.22205 1.41215,-2.86843 2.83967,-3.79943 0.8192,-0.53426 1.9834,-1.1095801 2.24367,-1.1087801 0.0699,2.6e-4 -0.17933,0.12465 -0.55374,0.2765301 -2.30993,0.93699 -3.26976,1.92421 -4.39189,4.51718 -1.44044,3.32852 -1.82685,3.81162 -3.88195,4.85356 -0.61642,0.31252 -2.0923,1.06332 -3.27975,1.66843 -1.2008,0.61192 -2.51597,1.2175 -2.96333,1.3645 -0.87016,0.28591 -2.45927,0.69944 -2.64001,0.68699 -0.0614,-0.004 0.36459,-0.131 0.94667,-0.2817 z M 94.250549,9.4029119 c 0.58209,-0.20524 2.02036,-0.84957 3.19617,-1.43186 1.17581,-0.58229 2.13783,-1.03936 2.13783,-1.01571 0,0.21525 -5.88819,2.85352 -6.30766,2.82623 -0.0466,-0.003 0.39158,-0.17343 0.97366,-0.37866 z m 6.265341,-2.96214 c 0.30268,-0.15846 0.58843,-0.28812 0.635,-0.28812 0.0466,0 -0.16299,0.12966 -0.46567,0.28812 -0.30268,0.15847 -0.58843,0.28812 -0.635,0.28812 -0.0466,0 0.16298,-0.12965 0.46567,-0.28812 z m 0.9713,-0.43194 c 0.33682,-0.19208 1.4183,-0.63568 1.45654,-0.59744 0.0167,0.0167 -0.32201,0.17897 -0.75273,0.36055 -0.92569,0.39027 -1.04056,0.42893 -0.70381,0.23689 z m 1.90736,-0.80755 c 0.5507,-0.24455 2.05097,-0.75943 2.09233,-0.71807 0.0193,0.0193 -0.22445,0.12052 -0.54175,0.22485 -0.3173,0.10434 -0.85412,0.29876 -1.19294,0.43204 -0.70164,0.27601 -0.92898,0.3149 -0.35764,0.0612 z m 2.49767,-0.88829 c 0.98963,-0.36871 3.9013,-0.97727 4.55602,-0.95223 0.16162,0.006 0.0661,0.0391 -0.23802,0.082 -1.17449,0.1656 -2.60448,0.45804 -3.54056,0.72405 -1.06339,0.3022 -1.33131,0.35259 -0.77744,0.14623 z m 5.05999,-1.02331 c 0.12871,-0.0195 0.31921,-0.0189 0.42334,10e-4 0.10414,0.0201 -0.001,0.036 -0.234,0.0354 -0.23283,-6.8e-4 -0.31803,-0.0171 -0.18934,-0.0365 z m 0.88596,-0.085 c 0.1503,-0.0187 0.417,-0.019 0.59266,-6.7e-4 0.17567,0.0183 0.0527,0.0336 -0.27328,0.034 -0.32596,3.4e-4 -0.46968,-0.0146 -0.31938,-0.0333 z m 5.12422,-5.9e-4 c 0.17462,-0.0183 0.46037,-0.0183 0.635,0 0.17462,0.0183 0.0318,0.0332 -0.3175,0.0332 -0.34925,0 -0.49213,-0.0149 -0.3175,-0.0332 z m -3.22203,-0.0861 c 0.49801,-0.0149 1.33621,-0.015 1.86267,-8e-5 0.52646,0.0149 0.11899,0.0271 -0.90548,0.0272 -1.02446,7e-5 -1.4552,-0.0121 -0.95719,-0.0271 z"
     style="fill:#ddb99c;stroke-width:0.999998"
     id="path32" />
  <defs
     id="defs2" />
  <metadata
     id="metadata5">
    <rdf:RDF>
      <cc:Work
         rdf:about="">
        <dc:format>image/svg+xml</dc:format>
        <dc:type
           rdf:resource="http://purl.org/dc/dcmitype/StillImage" />
        <dc:title></dc:title>
      </cc:Work>
    </rdf:RDF>
  </metadata>
  <path
     style="fill:#b99176;stroke-width:0.999998"
     d="m 90.630389,91.3826 c -0.0467,-0.0582 -0.3995,-0.62018 -0.78401,-1.24883 -1.01947,-1.6668 -2.09164,-3.23093 -3.15113,-4.59702 -2.14955,-2.7716 -2.37846,-3.3385 -3.32301,-8.22998 -0.5798,-3.00253 -0.74703,-3.605 -1.19122,-4.29166 -1.38432,-2.13994 -3.0224,-3.574598 -7.10746,-6.224848 -2.17622,-1.41185 -5.23559,-3.49557 -7.53534,-5.13225 -3.87857,-2.7603 -4.89818,-4.11798 -4.90697,-6.53391 -0.005,-1.45564 0.20814,-1.85264 2.04835,-3.81 2.40009,-2.55291 3.16976,-4.1599 2.85064,-5.95194 -0.47127,-2.64641 0.3081,-4.20766 2.39982,-4.8074 0.14475,-0.0415 0.13331,-0.27248 -0.0637,-1.28749 -0.38417,-1.97866 -0.18233,-2.46259 1.34809,-3.23207 2.15669,-1.08436 2.27556,-2.83765 0.38485,-5.6761 -1.10218,-1.65465 -1.33415,-3.44456 -0.62697,-4.83777 0.60262,-1.1872 1.4542,-1.63789 4.46607,-2.36361 2.52013,-0.60723 3.11155,-0.82736 5.51954,-2.05446 1.18745,-0.60511 2.66334,-1.35591 3.27975,-1.66843 2.0335,-1.03098 2.48956,-1.59596 3.83766,-4.75423 0.97053,-2.27369 1.33123,-2.76363 2.69501,-3.66061 1.1169,-0.7346 1.31616,-0.82641 2.98818,-1.3768601 1.23307,-0.40595 1.9294,-0.71378 4.38673,-1.93925 6.952241,-3.46709 10.065131,-4.36087 15.663331,-4.49728 20.8846,-0.50888 37.21515,15.8585801 37.81971,37.9051701 0.34162,12.45796 -6.40214,22.43283 -17.75371,26.25996 -2.17709,0.734 -3.09454,0.90957 -5.24623,1.00401 -4.82959,0.21197 -5.0345,0.50711 -3.93703,5.670698 0.4754,2.23678 0.52007,2.63229 0.21756,1.92657 -0.87959,-2.05199 -1.40446,-5.13485 -1.07086,-6.289708 0.38983,-1.34951 1.47812,-1.72732 4.98538,-1.73073 4.73305,-0.005 11.47681,-3.44941 15.70835,-8.02405 4.65374,-5.03108 6.64388,-10.38678 6.6461,-17.88542 8.5e-4,-2.2421 -0.0419,-2.92897 -0.33613,-5.41866 -1.40705,-11.90759 -8.07527,-22.38495 -17.9036,-28.1307701 -8.01117,-4.68349 -18.05096,-6.13556 -26.43716,-3.82365 -2.27943,0.62839 -4.10013,1.37561 -7.763041,3.18597 -3.50629,1.73295 -3.43011,1.69936 -5.05823,2.2308101 -1.65458,0.54009 -2.76474,1.17195 -3.70848,2.11073 -0.6549,0.65146 -0.82012,0.94813 -1.77965,3.19553 -1.21106,2.83653 -1.62809,3.27893 -4.50185,4.77578 -4.34781,2.26463 -5.362,2.70339 -7.30379,3.15978 -4.57351,1.07493 -5.36664,1.66273 -5.37365,3.98248 -0.004,1.15565 0.19353,1.74028 0.98997,2.93777 1.9916,2.99443 1.76885,4.87168 -0.73865,6.22544 -1.21885,0.65804 -1.30855,0.89965 -0.97402,2.62362 0.0929,0.47896 0.19414,1.11569 0.22489,1.41495 0.0516,0.50198 0.0975,0.59869 0.59361,1.24884 0.29574,0.38759 0.50727,0.70472 0.47007,0.70472 -0.0865,0 -0.66948,-0.61291 -1.02685,-1.0795 -0.44201,-0.57712 -1.29028,-0.38152 -2.05027,0.47277 -0.75498,0.84865 -0.92103,1.55122 -0.67182,2.84257 0.47074,2.43938 -0.13151,3.91966 -2.75892,6.78116 -1.71452,1.86728 -2.04936,2.40054 -2.12013,3.37656 -0.20386,2.81189 1.99232,4.85735 12.47095,11.61514 3.6826,2.37495 5.19401,3.63589 6.55879,5.471868 1.05067,1.41342 1.09314,1.53853 1.89451,5.58073 0.82642,4.16853 1.1943,5.16088 2.58606,6.9757 2.17062,2.83041 2.84248,3.82878 3.64883,5.422 0.56822,1.12273 0.82191,1.8321 0.52113,1.45716 z"
     id="path30" />
  <path
     id="path34"
     d="m 91.567199,99.84927 c 0.0265,-0.15134 0.12611,-0.63712 0.22142,-1.0795 0.71945,-3.33946 -1.1119,-7.91832 -5.27308,-13.18411 -2.07707,-2.62843 -2.32308,-3.23808 -3.3174,-8.22097 -0.64059,-3.21029 -0.73202,-3.55872 -1.0815,-4.12192 -1.30108,-2.09667 -3.06063,-3.675478 -6.74675,-6.053738 -2.91166,-1.87859 -7.03677,-4.70987 -9.20389,-6.31713 -2.72973,-2.02454 -3.82604,-3.77266 -3.73456,-5.95501 0.0541,-1.29068 0.40937,-1.91893 2.07519,-3.66973 1.62761,-1.71064 2.53786,-3.12192 2.8686,-4.44755 0.14145,-0.56692 0.13651,-0.64151 -0.14029,-2.11968 -0.33587,-1.79356 0.39645,-3.26173 2.01778,-4.04531 0.33761,-0.16317 0.61384,-0.30571 0.61384,-0.31676 0,-0.011 -0.0762,-0.43484 -0.16934,-0.94176 -0.39325,-2.14044 -0.20688,-2.61154 1.36051,-3.43909 2.07381,-1.09491 2.22317,-2.76246 0.4798,-5.35672 -1.51483,-2.25419 -1.56435,-4.42961 -0.13521,-5.94071 0.68672,-0.7261 1.68584,-1.11247 4.81424,-1.86169 2.11306,-0.50606 2.54229,-0.69151 7.239,-3.12775 2.77126,-1.43748 3.02751,-1.72054 4.35976,-4.81594 1.42216,-3.30429 2.41611,-4.22096 5.75219,-5.3049701 1.49065,-0.48436 2.43298,-0.90189 4.87404,-2.15964 4.666921,-2.4046 8.156601,-3.63519 11.514671,-4.0605 22.45284,-2.84375998 41.33975,14.2606801 41.84381,37.8947501 0.17842,8.36556 -2.04614,14.29378 -7.41188,19.75188 -4.62437,4.70397 -10.46373,7.43506 -16.31326,7.62976 -4.25183,0.14152 -4.39093,0.47941 -2.82883,6.871628 0.0928,0.37969 0.54819,1.84654 1.012,3.25967 1.51002,4.60065 2.17851,7.97995 1.12379,5.68082 -0.16556,-0.36089 -0.33626,-0.70027 -0.37935,-0.75416 -0.0807,-0.10096 -0.53679,0.12605 -2.22961,1.10978 -2.61796,1.52135 -2.40632,1.50512 -3.04145,0.23336 -0.21613,-0.43278 -0.44492,-0.80681 -0.50843,-0.83117 -0.19843,-0.0761 -4.0813,2.03978 -5.84812,3.18686 -0.2794,0.18139 -0.60006,0.3708 -0.71257,0.42091 -0.11252,0.0501 -0.70732,0.39361 -1.32178,0.76334 -0.61447,0.36973 -1.18916,0.6979 -1.27709,0.72927 -0.0879,0.0314 -0.21705,0.1034 -0.2869,0.16004 -0.17308,0.14035 -2.37954,1.32294 -3.47133,1.86051 -2.32634,1.14544 -4.99212,2.1434 -7.80706,2.92267 l -1.330061,0.36821 -0.30953,0.72544 c -0.95871,2.24703 -2.0496,3.98511 -2.5012,3.98511 -0.1992,0 -0.19855,-0.0304 0.0139,-0.64303 0.27485,-0.79243 0.44673,-1.38971 0.41035,-1.42608 -0.0184,-0.0184 -0.49069,0.0606 -1.04947,0.17551 -0.87725,0.18048 -2.85292,0.53197 -3.0194,0.53718 -0.0309,9.3e-4 -0.1597,0.27798 -0.28633,0.61559 -0.45428,1.21115 -0.98275,2.01828 -0.85926,1.31233 z m 0.45518,-5.334 c -0.0638,-0.65789 -0.35901,-1.65422 -0.89703,-3.02764 -0.49036,-1.25173 -0.57253,-1.12404 0.83866,-1.30324 1.11805,-0.14197 4.32924,-0.72418 5.92721,-1.07462 0.44238,-0.097 0.86148,-0.18253 0.93133,-0.19003 0.17952,-0.0193 0.1319,1.02538 -0.13169,2.8889 -0.24081,1.70237 -0.25597,2.05046 -0.0893,2.05046 0.9429,0 1.752991,-5.17536 1.497551,-9.56733 -0.226571,-3.89573 -0.601461,-5.09112 -0.688221,-2.19449 -0.0603,2.01398 -0.21186,2.27193 -2.06995,3.52351 -0.4191,0.2823 -1.12395,0.8045 -1.56634,1.16043 -1.43894,1.15778 -2.25519,1.36109 -3.683,0.91739 -3.63354,-1.12915 -6.15289,-5.95669 -6.13013,-11.74651 0.0116,-2.9605 0.40967,-3.40051 3.63247,-4.01557 8.74389,-1.668698 17.623291,-2.762948 20.037911,-2.469358 3.17445,0.38597 5.76153,2.220318 7.95435,5.639938 1.42364,2.22012 1.66821,2.58066 1.75057,2.58066 0.0501,0 0.55853,-0.2667 1.12982,-0.59267 0.57129,-0.32596 1.05483,-0.59266 1.07453,-0.59266 0.0197,0 0.46917,-0.2038 0.99882,-0.45289 0.52965,-0.24908 1.13445,-0.53107 1.344,-0.62663 l 0.381,-0.17376 0.10659,0.19961 c 0.0586,0.10978 0.21809,0.50195 0.35434,0.87149 0.83851,2.27418 1.70465,4.23875 1.75932,3.99048 0.0293,-0.13289 -0.15472,-0.79622 -0.89966,-3.24375 -0.95537,-3.13888 -1.50067,-6.15676 -1.27925,-7.079758 0.28138,-1.17294 0.85022,-1.38292 4.12305,-1.522 6.90428,-0.29341 14.03581,-4.44325 18.70731,-10.88579 4.2171,-5.81587 5.52879,-13.3074 3.96275,-22.63268 -3.22152,-19.18307 -18.69264,-32.3555501 -37.37545,-31.8223301 -5.66732,0.16175 -8.57084,1.00797 -15.794441,4.60325 -2.23401,1.11189 -2.97424,1.43687 -4.18944,1.83925 -1.67116,0.5533501 -1.84571,0.6334501 -2.96079,1.3585501 -1.38094,0.89798 -1.87464,1.5634 -2.79734,3.77029 -1.25328,2.99757 -1.81123,3.68161 -3.8351,4.7018 -0.56644,0.28554 -2.00144,1.01462 -3.18889,1.62019 -2.4104,1.22925 -2.95323,1.43059 -5.63471,2.09 -2.99438,0.73636 -3.78076,1.15759 -4.37659,2.34435 -0.78819,1.56988 -0.5859,3.13617 0.65188,5.04754 1.77544,2.74159 1.65336,4.42241 -0.39633,5.45709 -1.61949,0.81751 -1.80614,1.26113 -1.41189,3.35565 0.20821,1.10612 0.20143,1.14242 -0.23801,1.27408 -0.74391,0.22288 -1.56242,1.00184 -2.06439,1.96463 -0.25742,0.49374 -0.27205,1.5321 -0.0395,2.79962 0.31903,1.7385 -0.39988,3.30607 -2.57958,5.62472 -2.52067,2.68134 -2.91628,3.98133 -1.90647,6.26468 0.85513,1.93361 3.72371,4.21021 12.32288,9.77985 3.88397,2.51563 5.66358,4.097238 6.86346,6.099848 0.43389,0.72416 0.50471,0.98081 1.09574,3.97094 1.036,5.24137 1.26184,5.80601 3.4077,8.51976 2.34604,2.96693 4.04294,5.92602 5.1793,9.03175 0.19831,0.54201 0.25236,0.50606 0.19096,-0.127 z m -7.16982,-27.671778 c -2.05202,-0.14155 -3.44262,-0.40862 -5.92667,-1.13828 -1.9489,-0.57246 -2.65444,-0.88847 -5.75733,-2.57866 -2.09677,-1.14213 -3.52716,-1.84989 -4.99534,-2.47166 -3.61056,-1.5291 -5.02939,-3.06368 -5.03534,-5.44612 -0.003,-1.28099 0.23464,-1.70927 1.96332,-3.53542 2.6392,-2.78801 3.37718,-4.55447 2.8935,-6.92601 -0.26839,-1.31592 -0.11484,-1.96868 0.65729,-2.79414 0.94408,-1.00931 1.31573,-1.00352 2.21047,0.0344 0.6235,0.72327 2.06353,2.119 2.35464,2.28219 0.25497,0.14292 0.10681,-0.1879 -0.39415,-0.88015 -0.71622,-0.98969 -1.06904,-1.76906 -1.80807,-3.99405 -0.81516,-2.45421 -0.8745,-2.15 0.57488,-2.94766 2.2931,-1.262 2.50176,-3.33564 0.61967,-6.15843 -0.92444,-1.38652 -1.11166,-1.95259 -1.05502,-3.19008 0.0947,-2.06792 0.83246,-2.57337 5.31069,-3.63823 1.96484,-0.46721 2.56532,-0.72578 6.98829,-3.00929 2.64246,-1.36426 3.02588,-1.65186 3.80135,-2.85139 0.37742,-0.58381 0.59257,-1.03181 1.57794,-3.28576 0.90751,-2.07583 2.19773,-3.22565 4.40187,-3.92289 1.73955,-0.5502701 2.16429,-0.7299001 4.68678,-1.9821401 7.844791,-3.89438 12.080531,-4.96579 18.356851,-4.64325 17.05665,0.87654 30.45182,12.6750501 33.94019,29.8946101 0.39505,1.95008 0.39473,1.94337 0.12634,2.68312 -1.53832,4.24009 -4.89323,8.10051 -9.5399,10.97734 -4.45639,2.75903 -12.4469,3.25242 -17.32309,1.06965 -0.71174,-0.31861 -0.70337,-0.29423 -0.31869,-0.92748 1.28973,-2.12313 1.21408,-3.33898 -0.3144,-5.05262 -1.44417,-1.61911 -2.4515,-2.09875 -4.2994,-2.04719 -1.60384,0.0448 -1.70583,0.27901 -0.15275,0.35083 1.86963,0.0865 2.59663,0.3937 3.74126,1.58106 1.92522,1.99711 1.95798,2.99975 0.18127,5.54696 -1.84727,2.64839 -4.26136,4.56876 -6.7395,5.36119 -4.80565,1.53668 -8.07774,1.5642 -9.44635,0.0794 -0.69009,-0.74865 -0.6877,-1.30054 0.0106,-2.45332 0.50409,-0.83218 0.63882,-1.22973 0.45601,-1.34557 -0.48681,-0.30845 -1.45005,0.73367 -2.0433,2.21061 -0.42379,1.05508 -0.74311,1.66396 -1.33349,2.54272 -0.57414,0.8546 -1.02001,1.723 -1.55039,3.01969 -0.9014,2.20372 -1.13971,2.53347 -3.538721,4.89651 -2.86015,2.81726 -3.88446,3.40959 -7.1586,4.13965 -2.34494,0.52287 -4.15583,0.68549 -6.12271,0.54982 z m 31.072661,-14.32823 c 0.25612,-0.12694 0.84667,-0.5166 1.31233,-0.8659 0.46567,-0.34931 1.15147,-0.81163 1.524,-1.0274 4.46522,-2.58615 4.86721,-6.5375 0.80434,-7.90612 -3.70929,-1.24951 -7.05513,2.54241 -4.58561,5.19697 0.87873,0.94457 0.9365,1.21919 0.37601,1.78742 -0.7593,0.7698 -2.06017,0.929 -3.2377,0.39624 -0.68152,-0.30835 -0.63088,-0.30563 -2.35287,-0.12629 -0.70657,0.0736 -0.67636,-0.0221 0.16933,-0.5362 0.93066,-0.56579 1.11788,-0.61358 2.30047,-0.58726 0.89723,0.02 1.01544,0.04 1.06469,0.1804 0.0785,0.22383 0.16968,-0.0238 0.16968,-0.46086 0,-0.32539 -0.95143,-2.40321 -1.25602,-2.74299 -0.48297,-0.53879 -1.04537,-0.49246 -1.61342,0.13293 -0.94381,1.03907 -1.4597,1.49478 -2.21336,1.9552 -2.29292,1.40077 -1.13517,2.86592 1.98943,2.51766 l 0.95106,-0.106 0.62666,0.28385 c 2.09332,0.94822 4.58404,-0.33911 4.5795,-2.36691 -10e-4,-0.59186 -0.13097,-0.97969 -0.77464,-2.31731 -0.56423,-1.17255 -0.69077,-1.66344 -0.47492,-1.84257 0.19086,-0.1584 0.20132,-0.13319 0.29802,0.71781 0.16761,1.47508 0.65144,1.63792 1.23194,0.41463 0.41227,-0.86879 0.48437,-1.246 0.32685,-1.70999 -0.16553,-0.48754 -0.16814,-0.48612 0.8869,-0.4839 0.9425,0.002 1.49136,0.12692 2.15183,0.48983 0.40091,0.22028 0.39822,0.24411 -0.065,0.57674 -0.80708,0.5796 -1.24083,1.33804 -1.8666,3.26387 -1.02144,3.1435 -2.80638,4.76064 -5.26834,4.77304 -1.45644,0.007 -2.3865,0.2016 -2.14093,0.44716 0.093,0.093 2.52256,0.21482 3.81632,0.19135 0.68776,-0.0125 0.87182,-0.048 1.27,-0.2454 z m -2.20133,-9.25327 c 0.39537,-0.80246 0.58409,-1.04488 1.25386,-1.61068 0.67638,-0.57139 0.734,-0.67038 0.34497,-0.5927 -0.85357,0.17046 -2.11817,1.01944 -2.72912,1.83219 -0.4682,0.62284 -0.47413,0.78048 -0.032,0.85234 0.17464,0.0284 0.34425,0.0783 0.37692,0.11101 0.20955,0.20955 0.49727,-0.007 0.7854,-0.59216 z m -36.430351,-9.30342 c 0.80338,-0.36558 1.72334,-1.60139 1.74966,-2.35035 0.0159,-0.45253 -0.13184,-0.39247 -0.46796,0.19022 -0.73966,1.28223 -1.55514,1.88293 -2.71079,1.9968 -0.58761,0.0579 -0.80238,0.23835 -0.38873,0.32662 0.10478,0.0224 0.2667,0.0586 0.35984,0.0805 0.31708,0.0745 1.01489,-0.0421 1.45798,-0.24375 z m -2.43165,-1.83281 c 0,-0.87156 -1.07318,-2.18115 -1.71289,-2.09022 -0.17222,0.0245 -0.13169,0.0919 0.40081,0.66722 0.59404,0.64174 0.6883,0.78174 0.92296,1.37084 0.15843,0.3977 0.38912,0.42862 0.38912,0.0522 z m 16.67826,-5.64016 c -8.4e-4,-0.0349 -0.20864,-0.24553 -0.46234,-0.46803 -0.49739,-0.4362 -0.68739,-0.84959 -0.55298,-1.20311 0.11622,-0.30569 0.19952,-0.31565 0.94923,-0.1135 0.60585,0.16336 0.88028,0.18651 2.00085,0.1688 1.11992,-0.0177 1.36041,0.003 1.74691,0.14717 0.99763,0.37327 1.53745,0.14649 0.86757,-0.36446 -0.4205,-0.32073 -0.71811,-0.93894 -0.90737,-1.88484 -0.0917,-0.45807 -0.20608,-1.02336 -0.25429,-1.25619 -0.12012,-0.58023 -0.41043,-1.17269 -0.87693,-1.78962 -0.80894,-1.06981 -0.25527,-1.69955 1.22421,-1.39242 1.0751,0.22319 3.00276,2.11583 3.29751,3.23759 0.51278,1.95152 1.652181,3.72807 1.819391,2.83676 0.0568,-0.30287 -0.0817,-1.23596 -0.435581,-2.93465 -0.35388,-1.69853 -0.41443,-1.86723 -0.87716,-2.4438 -0.25336,-0.31569 -0.42595,-0.61551 -0.42595,-0.73994 0,-1.00643 -5.06463,-4.46706 -6.71307,-4.58699 -0.44812,-0.0326 -0.59345,-0.0768 -0.65972,-0.20062 -0.095,-0.17755 -0.29458,-0.11557 -0.6404,0.19892 -0.15751,0.14324 -0.20583,0.15025 -0.36535,0.0529 -0.16295,-0.0994 -0.20217,-0.0898 -0.34553,0.0851 -0.45363,0.55341 -0.42066,1.52333 0.0618,1.81777 0.18986,0.11586 0.12306,0.26826 -0.19193,0.43789 -0.6202,0.334 -0.69222,0.95026 -0.27236,2.33073 0.23479,0.77199 0.27094,1.01716 0.27464,1.86267 l 0.004,0.97367 -0.37284,0.80433 c -0.55274,1.19243 -0.58823,2.01595 -0.0943,2.18813 0.24316,0.0848 0.25141,0.10397 0.20139,0.46888 -0.0554,0.40398 -0.0427,0.42952 0.6037,1.21173 0.35341,0.42769 1.40152,0.84426 1.39666,0.55509 z m 1.22874,-2.11065 c -0.0931,-0.0208 -0.37502,-0.0953 -0.6264,-0.16553 l -0.45706,-0.12768 0.46877,-0.48082 c 0.25783,-0.26445 0.57152,-0.64712 0.6971,-0.85038 0.12558,-0.20326 0.25894,-0.33661 0.29634,-0.29633 0.10348,0.11142 1.01825,1.82385 1.01825,1.90615 0,0.0729 -1.08512,0.0843 -1.397,0.0146 z m 0.95824,-0.30433 c 0.0425,-0.2229 -0.31135,-0.89648 -0.55462,-1.05588 -0.21409,-0.14028 -1.16654,0.68991 -1.09223,0.95203 0.0835,0.2945 1.5924,0.38965 1.64685,0.10385 z m 0.62859,-0.50602 c -0.0467,-0.0582 -0.29616,-0.54398 -0.55437,-1.0795 -0.27658,-0.57366 -0.62858,-1.15319 -0.85679,-1.41066 -0.41461,-0.46776 -0.46606,-0.64801 -0.25238,-0.88413 0.32008,-0.35369 1.22779,0.91742 1.86605,2.61312 0.28291,0.75162 0.16011,1.21319 -0.20251,0.76117 z"
     style="fill:#e8ceb5;stroke-width:0.999998" />
  <g
     id="qtip">
    <path
       id="path56"
       d="m 16.904401,40.26273 c 2.781206,-0.591759 31.319443,-6.159343 31.899363,-6.294717 0.257342,-0.06007 0.509547,-0.04505 0.615418,-0.248863 0.51396,-0.989416 1.264708,-1.454248 2.103766,-1.636706 0.83906,-0.182461 1.722509,-0.157742 2.374389,0.125385 0.651881,0.283127 0.940982,0.513474 1.138181,0.815477 0.197201,0.302002 0.277779,0.776601 0.247104,1.069874 -0.03067,0.293274 -0.329484,0.800503 -0.707581,1.121686 -0.378094,0.321184 -0.811152,0.508116 -1.340338,0.673251 -0.954262,0.229878 -1.836238,0.228154 -2.77837,-0.27142 -0.440762,-0.233717 -0.701544,-0.39294 -1.167458,-0.296945 -0.384156,0.07914 -0.819819,0.158144 -1.624269,0.325162 -1.190857,0.247241 -28.637774,5.688131 -30.918098,6.151087 -2.313633,0.478115 -4.520972,0.943353 -6.538914,1.343895 -0.73759,0.146403 -1.0376997,0.159908 -1.404838,0.751122 -0.2024061,0.325941 -0.7137876,0.707848 -1.5384143,0.972928 -0.8187641,0.263196 -1.7688331,0.51112 -2.6194623,0.291431 C 4.0384287,44.998751 3.2834775,44.632096 3.1115151,44.069271 2.9594654,43.571628 2.9328362,43.304129 3.2243199,42.796849 3.5751733,42.186242 3.9620938,41.81418 4.4824771,41.630635 c 0.8869958,-0.312855 1.7666947,-0.457283 2.570069,-0.329006 0.8227971,0.131374 0.9272032,0.294826 1.3649598,0.402338 0.2270089,0.05575 0.4089322,0.144155 0.8225172,0.0611 0.6969798,-0.139964 6.4006949,-1.23501 7.6643779,-1.502339 z"
       style="fill:#000000;stroke-width:0.999999" />
    <path
       id="path213"
       d="m 51.585113,35.630996 c 1.896907,0.26748 3.765773,-1.01052 3.262294,-2.230876 -0.652981,-1.58273 -4.309527,-1.418637 -4.992656,0.224054 -0.09081,0.218367 -0.07358,0.237813 0.16693,0.188375 0.603052,-0.123958 0.951714,0.97803 0.365884,1.156425 -0.380423,0.115847 0.405554,0.550347 1.197548,0.662022 z"
       style="fill:#ffffff;stroke-width:0.999999" />
    <path
       id="path209"
       d="M 4.9464203,44.819065 C 5.6784315,44.984237 6.4299797,44.760551 7.0136692,44.538837 8.0036494,44.162799 8.7409757,43.791252 8.6907045,42.761612 8.6665712,42.267304 8.2062844,42.025497 7.664751,41.8072 c -1.1609899,-0.468006 -3.0837365,-0.0982 -3.6069494,0.465876 -0.9611563,1.036223 -0.95329,2.130386 0.8886187,2.545989 z"
       style="fill:#ffffff;stroke-width:0.999999" />
    <path
       d="m 50.228719,34.004613 c -0.09646,-0.04012 -41.0951796,8.054407 -41.2197113,8.13765 -0.03616,0.02417 0.1075937,0.536874 0.1987131,0.753793 0.2573244,-0.03328 41.1797222,-8.363784 41.2093732,-8.385092 0.02575,-0.0185 0.03519,-0.06926 0.03167,-0.130909 -2e-6,-3.4e-5 -3.5e-5,-6.6e-5 -3.5e-5,-8.9e-5 -0.02447,-0.158038 -0.115625,-0.331934 -0.220004,-0.375343 z"
       style="fill:#71a6c6;stroke-width:0.999999"
       id="path215" />
    <path
       d="m 50.379279,34.168826 c -0.117995,0.295061 -0.64786,0.349203 -0.969805,0.428634 -0.32962,0.08132 -27.774187,5.523632 -32.138075,6.378761 -2.24385,0.458559 -5.892858,1.11168 -7.3140635,1.512726 -0.3174502,0.08958 -0.7263415,0.260236 -0.7820225,0.322176 0.034664,0.09477 0.066418,0.16696 0.084942,0.178826 0.00571,0.0036 1.455332,-0.289063 3.002704,-0.607035 1.547371,-0.31797 3.38714,-0.696252 4.088407,-0.840614 0.701263,-0.144366 1.56676,-0.321729 1.923307,-0.394117 7.225186,-1.46687 32.091314,-6.408592 32.161056,-6.576304 0.04283,-0.102976 0.01069,-0.273817 -0.05645,-0.403046 z"
       style="fill:#4d79a2;stroke-width:0.999999"
       id="path60" />
    <path
       style="fill:#e6e6e6;stroke-width:0.999999"
       d="m 4.9464203,44.819065 c 0.7320112,0.165172 1.4835594,-0.05851 2.0672489,-0.280228 0.9899802,-0.376038 1.7254858,-0.756738 1.6770353,-1.777225 -0.00697,-0.146651 -0.3646475,0.599586 -0.7337121,0.869972 -1.0075859,0.780341 -3.7058639,1.306394 -4.0363269,-0.108179 -0.1519165,-0.789136 0.449965,-1.587593 0.1371361,-1.250329 -0.9611563,1.036223 -0.95329,2.130386 0.8886187,2.545989 z"
       id="path1103" />
    <path
       style="fill:#e6e6e6;stroke-width:0.999999"
       d="m 51.585113,35.630996 c 1.896907,0.26748 3.765773,-1.01052 3.262294,-2.230876 -0.153899,0.598569 -0.712625,1.29902 -1.45652,1.548628 -1.138403,0.381979 -2.616311,0.117268 -3.003322,0.02023 -0.37413,0.134795 0.405554,0.550347 1.197548,0.662022 z"
       id="path1105" />
    <path
       id="sample"
       style="fill:#aafff7;fill-opacity:0.540323;stroke:#50cabe;stroke-width:0.265;stroke-linecap:butt;stroke-linejoin:miter;stroke-miterlimit:4;stroke-dasharray:none;stroke-opacity:0.822581"
       d="m 49.886195,32.236762 c -0.64732,0.788484 -0.39241,1.252959 -0.49034,1.609021 -0.0979,0.356062 0.35969,1.166027 0.68606,1.812093 0.32637,0.646066 1.09507,1.503578 1.14321,2.129245 0.0481,0.625667 0.55517,0.656123 0.72045,0.216768 0.16528,-0.439354 -0.0969,-0.968418 0.23073,-1.286785 0.32765,-0.318367 0.72791,0.0815 0.49624,0.425488 -0.23168,0.343992 0.13483,0.890524 0.49315,0.595454 0.35833,-0.295071 0.0978,-0.822201 0.37972,-1.171883 0.28192,-0.349683 0.65935,-0.140521 0.63439,0.264077 -0.025,0.404557 -0.055,0.73864 0.10689,1.130017 0.16193,0.391377 0.77734,0.182827 0.57186,-0.523094 -0.20548,-0.705921 0.41342,-1.733777 0.79574,-2.812561 0.38232,-1.078784 -0.31359,-2.500515 -1.57708,-3.01745 -1.26348,-0.516936 -3.54371,-0.158874 -4.19102,0.62961 z" />
  </g>
  <path
     style="fill:#e8ceb5;stroke-width:0.999998"
     d="m 114.00938,3.7134679 c -5.12264,0.04224 -9.22371,1.288772 -16.087901,4.696354 -2.52249,1.252241 -2.94751,1.431522 -4.68705,1.9817921 -2.20414,0.69724 -3.49429,1.847444 -4.4018,3.923274 -0.98537,2.25395 -1.20026,2.701778 -1.57768,3.285588 -0.77547,1.19953 -1.15886,1.487245 -3.80132,2.851505 -4.42297,2.28351 -5.02388,2.541909 -6.98872,3.009119 -4.47823,1.06486 -5.21557,1.570617 -5.31027,3.638538 -0.048,1.048327 0.0611,1.963113 0.68574,2.610694 0.23793,0.246665 0.70165,0.10313 0.98436,0.296861 0.84177,0.576842 1.87377,1.393986 1.88216,2.414402 0.0135,1.641318 1.9048,12.928863 -2.96315,3.932774 -0.0521,0.03087 -0.0996,0.06358 -0.154,0.09354 -1.44938,0.797661 -1.3898,0.493414 -0.57464,2.947623 0.73903,2.224992 1.09142,3.004383 1.80764,3.994073 0.50096,0.69225 0.64926,1.022969 0.39429,0.880049 -0.29111,-0.16319 -1.73088,-1.558761 -2.35438,-2.282031 -0.89474,-1.037921 -1.26663,-1.043932 -2.21071,-0.03462 -0.77213,0.825461 -0.92572,1.478225 -0.65733,2.794146 0.48368,2.37154 -0.25416,4.138181 -2.89336,6.926191 -1.72868,1.826151 -1.96619,2.254194 -1.96319,3.535185 0.006,2.382441 1.42479,3.917079 5.03535,5.446178 1.46818,0.621771 2.89828,1.329555 4.99505,2.471684 3.10289,1.69019 3.80837,2.006196 5.75727,2.578653 2.48405,0.72966 3.87475,0.996884 5.92677,1.138434 1.96688,0.13567 3.77768,-0.02697 6.12262,-0.549839 3.27414,-0.730059 4.29859,-1.322538 7.15874,-4.139798 2.399011,-2.363041 2.637401,-2.692622 3.538801,-4.896342 0.53038,-1.296691 0.97615,-2.164855 1.55029,-3.019454 0.59038,-0.87876 0.90947,-1.487916 1.33325,-2.542998 0.59326,-1.476938 1.557,-2.519166 2.04381,-2.210718 0.18281,0.11584 0.0478,0.513475 -0.45631,1.345655 -0.69829,1.152782 -0.70042,1.704949 -0.0103,2.453598 1.36861,1.484799 4.64029,1.457097 9.44593,-0.07958 2.47814,-0.79243 4.89237,-2.71304 6.73964,-5.36143 1.77671,-2.54721 1.74384,-3.54984 -0.18138,-5.546949 -1.14463,-1.187361 -1.87123,-1.494282 -3.74086,-1.580783 -1.55308,-0.07182 -1.45139,-0.306083 0.15245,-0.350882 1.8479,-0.05156 2.85531,0.427794 4.29948,2.046904 1.52848,1.71364 1.60392,2.929792 0.31419,5.05292 -0.38468,0.633251 -0.3929,0.608983 0.31884,0.927592 4.87619,2.18277 12.86659,1.68933 17.32298,-1.0697 4.64667,-2.876831 8.00166,-6.737535 9.53998,-10.977626 0.26839,-0.739748 0.26896,-0.732959 -0.12609,-2.683039 -3.48836,-17.219561 -16.8839,-29.0177601 -33.94055,-29.8943001 -0.78454,-0.04032 -1.53679,-0.05926 -2.2686,-0.05323 z"
     id="path1252" />
  <path
     style="fill:#ffffff;stroke-width:0.999998"
     d="m 93.124519,22.999629 c 0.0187,0.0016 0.0347,0.0062 0.0481,0.01499 0.24327,0.1594 0.59699,0.83285 0.55449,1.05575 -0.0545,0.2858 -1.56291,0.191147 -1.64641,-0.103353 -0.0697,-0.245737 0.76309,-0.990803 1.04386,-0.967383 z"
     id="path1260" />
  <path
     style="opacity:0.376206;fill:none;fill-opacity:0.72549;stroke:none;stroke-width:1.601;stroke-linecap:square;stroke-linejoin:round;paint-order:markers fill stroke"
     id="path48"
     d="m 101.51471,8.2828219 c 2.68259,-0.12333 5.31139,-0.69086 8.00841,-0.66794 1.48859,0.0127 2.97966,0.10503 4.45623,0.29429 4.42856,0.56764 5.51187,1.09396 9.80421,2.3928301 1.52326,0.66116 3.08186,1.2462 4.56977,1.98347 3.62842,1.7979 6.98581,4.09862 9.49209,7.32487 1.76836,2.27637 2.06719,3.3505 3.23209,5.94269 0.34063,1.09411 0.7145,2.17842 1.02191,3.28232 0.3449,1.23853 0.61623,2.4964 0.93424,3.74211 0.77659,3.04211 1.45765,5.71846 2.39906,8.71487 1.20058,3.82136 1.26546,3.75686 2.75234,7.29994 0.67084,0.91157 1.22727,1.91961 2.01252,2.7347 -0.75114,2.31389 6.62864,5.74064 -0.46243,-3.60649 -0.50051,-1.10748 -1.04672,-2.19542 -1.50152,-3.32245 -1.04756,-2.59598 -1.96294,-5.49407 -2.66348,-8.19545 -0.7073,-2.72747 -1.15202,-5.51903 -1.87221,-8.24312 -0.29508,-1.11612 -0.67922,-2.20676 -1.01882,-3.31013 -1.18813,-2.60999 -1.48694,-3.69466 -3.31183,-5.96498 -3.71688,-4.62411 -9.01365,-7.03738 -14.3775,-9.2049101 -4.27547,-1.33505 -5.30191,-1.83593 -9.69365,-2.51074 -1.43011,-0.21975 -2.8747,-0.35989 -4.32037,-0.41941 -2.50054,-0.10295 -4.9565,0.34306 -7.44952,0.32222 z" />
  <path
     style="fill:#b99176;stroke-width:0.999998"
     d="m 114.73989,44.429952 c 0,-0.0377 0.0559,-0.14244 0.1243,-0.23283 0.12691,-0.16778 0.17086,-0.0738 0.0783,0.16739 -0.0531,0.13834 -0.2026,0.18663 -0.2026,0.0654 z"
     id="path976" />
  <path
     style="fill:#b99176;stroke-width:0.999998"
     d="m 112.89637,50.754282 c -0.24557,-0.0409 -0.64562,-0.17562 -0.889,-0.29939 -0.49252,-0.25047 -0.68999,-0.26494 -2.17915,-0.15963 -2.64833,0.18727 -3.34345,-1.08918 -1.26641,-2.32549 0.80152,-0.47708 1.33875,-0.94773 2.05556,-1.80075 0.41968,-0.49946 0.66587,-0.62709 1.03218,-0.53515 0.2281,0.0573 0.2921,0.21923 0.0866,0.21923 -0.0688,0 -0.18994,0.10478 -0.26925,0.23284 -0.28115,0.45394 -0.67049,0.80081 -1.17204,1.04419 -0.60777,0.29491 -2.30985,1.43964 -2.51884,1.69404 -0.62225,0.75747 0.60993,1.44754 2.24506,1.25733 1.22717,-0.14276 1.47896,-0.12098 2.13158,0.18442 2.5844,1.20939 4.77784,-0.94751 3.62062,-3.56031 -0.43441,-0.98082 -0.40256,-1.11105 0.0502,-0.2051 1.06845,2.13811 0.33977,3.85994 -1.80103,4.25569 -0.55125,0.1019 -0.50216,0.10198 -1.12606,-0.002 z"
     id="path974" />
  <path
     style="fill:#b99176;stroke-width:0.999998"
     d="m 116.85655,51.609092 c 0.48109,-0.43337 1.18662,-0.95629 1.82034,-1.34917 2.88543,-1.78891 4.09147,-4.30739 2.79053,-5.82726 -0.44505,-0.51994 -1.01926,-0.33812 -1.86081,0.58925 l -0.40853,0.45019 0.20507,-0.3723 c 0.18242,-0.33119 0.4983,-0.64864 1.17874,-1.18461 0.25739,-0.20275 0.21866,-0.24997 -0.49448,-0.6028 -1.25662,-0.62171 -3.5493,-0.67896 -3.22908,-0.0806 0.14871,0.27787 0.0901,0.37161 -0.11307,0.18077 -0.25304,-0.23772 -0.39207,-0.23195 -0.92868,0.0385 -0.57862,0.29166 -0.34993,-1.7e-4 0.25867,-0.3301 1.92098,-1.04137 5.03287,-0.19334 5.92005,1.6133 0.87298,1.77774 -0.48909,4.0816 -3.4577,5.84848 -0.40257,0.2396 -0.95502,0.59931 -1.22766,0.79935 -0.64134,0.47054 -0.82688,0.56342 -0.45339,0.22698 z"
     id="path972" />
  <path
     style="fill:#b99176;stroke-width:0.999998"
     d="m 108.82252,54.728192 c -1.67324,-0.14244 -3.07124,-0.94837 -3.35205,-1.93242 -0.0391,-0.13719 0.0267,-0.0776 0.187,0.16933 1.2702,1.95617 4.86244,2.08782 10.0079,0.36676 2.68468,-0.89796 5.18031,-2.95359 7.07063,-5.82401 1.53629,-2.33283 1.4331,-3.37681 -0.53536,-5.41661 -0.40136,-0.4159 -0.61545,-0.67112 -0.47575,-0.56713 0.45572,0.3392 1.64439,1.73554 1.88331,2.21233 1.37856,2.75102 -3.46285,8.5884 -8.27793,9.98088 -2.82976,0.81834 -4.93251,1.14497 -6.50775,1.01087 z"
     id="path970" />
  <path
     style="fill:#b99176;stroke-width:0.999998"
     d="m 99.274159,89.01194 c 0.0282,-0.52388 0.11722,-2.49238 0.1978,-4.37444 0.16067,-3.75237 0.2053,-3.88446 0.41724,-1.23473 0.274011,3.42588 0.0396,6.56167 -0.49049,6.56167 -0.17063,0 -0.17432,-0.0282 -0.12455,-0.9525 z"
     id="path968" />
  <path
     style="fill:#b99176;stroke-width:0.999998"
     d="m 74.3998,31.520672 c -0.0863,-0.14991 -0.32533,-0.47259 -0.53125,-0.71707 -0.20593,-0.24447 -0.33156,-0.4445 -0.27917,-0.4445 0.18522,0 0.91394,0.8173 0.97447,1.09294 0.0816,0.37157 0.0241,0.39562 -0.16405,0.0686 z"
     id="path980" />
  <path
     style="fill:#b99176;stroke-width:0.999998"
     d="m 75.96256,34.011562 c 0,-0.0531 0.0748,-0.0965 0.16615,-0.0965 0.65035,0 1.72011,-0.74137 2.31481,-1.60424 0.30715,-0.44565 0.39983,-0.33714 0.14264,0.167 -0.26813,0.52556 -0.80747,1.06747 -1.30442,1.3106 -0.49296,0.24118 -1.31918,0.38092 -1.31918,0.2231 z"
     id="path978" />
  <path
     id="path26"
     d="m 90.97404,23.992362 c -0.39542,-0.19103 0.004,-1.36855 0.71224,-2.09813 0.58481,-0.60269 0.63704,-0.76034 0.32061,-0.96767 -0.23739,-0.15554 -0.27783,-0.30412 -0.0828,-0.30412 0.3172,0 1.23774,1.0793 1.55257,1.82033 l 0.10791,0.254 -0.24466,-0.28945 c -0.28047,-0.33182 -0.35702,-0.31037 -0.60749,0.17016 -0.27033,0.51865 -0.59445,0.89908 -1.04325,1.22452 -0.44029,0.31928 -0.44546,0.32065 -0.71515,0.19036 z m 1.29996,-2.06124 c 0.0276,-0.0719 0.0296,-0.15115 0.005,-0.17619 -0.0636,-0.0636 -0.39871,0.1256 -0.39871,0.22515 0,0.13446 0.33994,0.0922 0.39412,-0.049 z"
     style="fill:#413b35;stroke-width:0.999998" />
  <path
     style="fill:#b99176;stroke-width:0.999998"
     d="m 99.94425,24.285222 c -0.36021,-0.52233 -0.77074,-1.3748 -0.98925,-2.05417 -0.28736,-0.89346 -0.49106,-1.3188 -0.90295,-1.88548 -0.17703,-0.24357 -0.37789,-0.52224 -0.44636,-0.61928 -0.57351,-0.81282 -3.79304,-2.68024 -5.66939,-3.28841 -1.95291,-0.63298 -2.4743,-1.196 -2.04938,-2.21299 0.10632,-0.25444 0.15325,-0.28864 0.33386,-0.24331 0.15163,0.0381 0.29037,-0.008 0.49813,-0.16689 0.33419,-0.2549 0.44523,-0.27254 0.51822,-0.0823 0.0392,0.10219 0.11809,0.12424 0.30835,0.0862 1.32726,-0.26545 6.93841,3.39079 6.93841,4.52109 0,0.16439 0.16853,0.43165 0.54158,0.8589 0.29849,0.34185 0.39834,0.6032 0.64163,1.67945 0.64463,2.85155 0.74501,4.08564 0.27715,3.40721 z"
     id="path988" />
  <path
     style="fill:#b99176;stroke-width:0.999998"
     d="m 91.87989,21.980032 c 0,-0.0996 0.33508,-0.28878 0.39871,-0.22515 0.025,0.025 0.023,0.10433 -0.005,0.17619 -0.0542,0.14119 -0.39412,0.18342 -0.39412,0.049 z"
     id="path986" />
  <path
     style="fill:#b99176;stroke-width:0.999998"
     d="m 91.68919,23.801952 c 0.4488,-0.32544 0.77292,-0.70587 1.04325,-1.22452 0.25047,-0.48053 0.32702,-0.50198 0.60749,-0.17016 l 0.24466,0.28945 -0.10791,-0.254 c -0.31483,-0.74103 -1.23537,-1.82033 -1.55257,-1.82033 -0.19505,0 -0.15461,0.14858 0.0828,0.30412 0.31643,0.20733 0.2642,0.36498 -0.32061,0.96767 -0.70793,0.72958 -1.10766,1.9071 -0.71224,2.09813 0.26969,0.13029 0.27486,0.12892 0.71515,-0.19036 z"
     id="path984" />
  <path
     style="fill:#b99176;stroke-width:0.999998"
     d="m 91.75289,24.604442 c -0.32597,-0.0865 -0.76412,-0.23597 -0.97367,-0.33214 -0.51259,-0.23525 -0.57026,-0.22622 -0.77535,0.12137 -0.2246,0.38067 -0.27315,0.32887 -0.19875,-0.21206 0.0713,-0.51876 0.21379,-0.68056 0.59915,-0.68056 0.24434,0 0.29041,-0.0301 0.29111,-0.1905 0.001,-0.34064 0.40641,-1.07261 0.85686,-1.54889 l 0.44041,-0.46568 -0.21827,-0.23096 c -0.30786,-0.32577 -0.36327,-0.92055 -0.0821,-0.88132 0.2929,0.0409 0.55934,-0.31381 0.38299,-0.50982 -0.18343,-0.20386 0.18605,-0.29125 0.62563,-0.14797 0.91334,0.29771 1.51756,1.06 2.00625,2.53112 0.43091,1.29716 0.36563,1.55427 -0.1077,0.42423 -0.81056,-1.93515 -1.57825,-2.85615 -2.00074,-2.40028 -0.3025,0.3264 -0.26532,0.50036 0.22054,1.03196 0.56467,0.61784 1.86706,3.2632 1.72208,3.4978 -0.0965,0.15607 -0.38718,0.0867 -0.30393,-0.0725 0.0753,-0.14408 -0.96297,-2.13865 -1.14484,-2.19928 -0.0384,-0.0128 -0.16511,0.15729 -0.28146,0.37802 -0.11635,0.22073 -0.4337,0.62057 -0.70524,0.88853 l -0.4937,0.4872 0.2397,0.0927 c 0.34505,0.13337 1.29023,0.32752 1.6367,0.33619 0.56471,0.0142 0.66657,0.13246 0.16579,0.19258 -0.74077,0.0889 -1.26765,0.0585 -1.90145,-0.10967 z"
     id="path982" />
  <path
     transform="scale(0.26458333)"
     d="M 433.36523 11.742188 C 432.08923 11.742273 430.82589 11.756999 429.88477 11.785156 C 428.00252 11.841849 429.62998 11.886983 433.50195 11.886719 C 437.37397 11.886341 438.91555 11.841471 436.92578 11.785156 C 435.9309 11.756961 434.64124 11.742102 433.36523 11.742188 z M 423.7793 12.058594 C 423.3733 12.059052 422.97934 12.07599 422.69531 12.111328 C 422.12725 12.182005 422.67037 12.239566 423.90234 12.238281 C 425.13439 12.236769 425.5995 12.17854 424.93555 12.109375 C 424.60359 12.074736 424.18529 12.058135 423.7793 12.058594 z M 443.26172 12.058594 C 442.82672 12.058594 442.39249 12.074792 442.0625 12.109375 C 441.40248 12.17854 441.94172 12.236328 443.26172 12.236328 C 444.58191 12.236328 445.12287 12.17854 444.46289 12.109375 C 444.13288 12.074792 443.69672 12.058594 443.26172 12.058594 z M 447.46484 12.367188 C 447.12999 12.372795 446.84092 12.392301 446.60156 12.427734 C 445.86112 12.537341 445.94616 12.577439 447.00586 12.615234 C 462.17722 13.156614 486.27188 20.887593 502.7832 30.513672 C 531.93512 47.509187 555.34905 77.013716 565.36914 109.37891 C 565.68175 110.38876 565.99743 111.15491 566.07227 111.08008 C 566.26763 110.88471 564.72556 106.3139 562.77344 101.30273 C 547.27102 61.507635 516.60158 31.903635 477.09766 18.603516 C 467.71817 15.445614 452.4876 12.283081 447.46484 12.367188 z M 420.18164 12.378906 C 419.89164 12.37815 419.59089 12.396743 419.34766 12.433594 C 418.86127 12.506917 419.18251 12.567742 420.0625 12.570312 C 420.94313 12.57258 421.34087 12.513469 420.94727 12.4375 C 420.75048 12.399894 420.47164 12.379662 420.18164 12.378906 z M 417.44141 12.701172 C 414.96687 12.606533 403.96299 14.907232 400.22266 16.300781 C 398.12929 17.080725 399.14104 16.89022 403.16016 15.748047 C 406.6981 14.742655 412.10395 13.637609 416.54297 13.011719 C 417.6924 12.849577 418.05225 12.723849 417.44141 12.701172 z M 434.72656 13.572266 C 426.26406 13.473569 418.07299 14.184313 410.5293 15.720703 C 398.59718 18.150864 390.09994 21.329693 373.18164 29.691406 C 359.92952 36.241139 360.21798 36.114417 354.06445 38.123047 C 347.81092 40.164332 343.61572 42.551464 340.04883 46.099609 C 337.57362 48.561858 336.94884 49.683586 333.32227 58.177734 C 328.74503 68.89844 327.1681 70.57113 316.30664 76.228516 C 299.87397 84.787747 296.04217 86.444983 288.70312 88.169922 C 271.41742 92.232649 268.41903 94.455059 268.39258 103.22266 C 268.38127 106.96777 268.93872 109.13492 270.99219 112.52734 L 271.77734 112.71484 C 269.27096 108.69089 268.74154 106.53752 268.92969 102.42383 C 269.28742 94.608067 272.07636 92.696543 289.00195 88.671875 C 296.42812 86.906042 298.69733 85.929417 315.41406 77.298828 C 328.47426 70.556075 328.63117 70.378237 335.74609 54.103516 C 339.17605 46.257859 344.0522 41.912582 352.38281 39.277344 C 358.95749 37.197583 360.56188 36.518032 370.0957 31.785156 C 399.74531 17.06624 415.75504 13.017279 439.47656 14.236328 C 503.94264 17.549235 554.56952 62.140854 567.75391 127.22266 C 569.24701 134.59304 569.24681 134.56738 568.23242 137.36328 C 562.4183 153.38882 549.738 167.98046 532.17578 178.85352 C 515.33273 189.28135 485.13282 191.14632 466.70312 182.89648 C 464.01308 181.69229 464.04414 181.78401 465.49805 179.39062 C 470.37262 171.3662 470.08748 166.77167 464.31055 160.29492 C 458.85227 154.17545 455.04474 152.36162 448.06055 152.55664 C 441.99879 152.72581 441.61251 153.61144 447.48242 153.88281 C 454.54874 154.20959 457.29689 155.36976 461.62305 159.85742 C 468.89947 167.40555 469.02372 171.19502 462.30859 180.82227 C 452.56648 194.78925 441.52486 201.40227 422.46289 204.68555 C 404.93412 207.70475 395.20841 201.96114 401.17383 192.11328 C 403.07913 188.96803 403.58742 187.46516 402.89648 187.02734 C 401.05657 185.86155 397.41603 189.80068 395.17383 195.38281 C 393.5721 199.37052 392.36612 201.67284 390.13477 204.99414 C 387.96479 208.22412 386.27802 211.50537 384.27344 216.40625 C 380.86657 224.73527 379.96752 225.98093 370.90039 234.91211 C 358.93777 246.69528 352.31623 249.89835 335.26172 252.15234 C 325.82866 253.39906 315.20887 252.76185 305.82227 250.38672 C 293.07913 247.16225 290.02076 245.92947 276.54297 238.58789 C 268.61817 234.27118 263.21114 231.59609 257.66211 229.24609 C 244.01586 223.46682 238.65354 217.66856 238.63086 208.66406 C 238.61876 203.82253 239.51914 202.20277 246.05273 195.30078 C 256.02766 184.76342 258.8164 178.08635 256.98828 169.12305 C 255.97393 164.14949 256.55437 161.68235 259.47266 158.5625 C 263.04083 154.74771 264.44448 154.77044 267.82617 158.69336 C 270.18271 161.42698 275.6263 166.70158 276.72656 167.31836 C 277.69023 167.85853 277.12972 166.60857 275.23633 163.99219 C 272.52935 160.25163 271.19553 157.3059 268.40234 148.89648 C 265.32142 139.62073 265.0982 140.77064 270.57617 137.75586 C 272.80129 136.53127 274.49746 135.10156 275.68359 133.47656 L 275.13477 133.19922 C 273.82945 134.92464 271.91446 136.46653 269.3418 137.85547 C 264.73512 140.34251 264.39774 141.25565 265.66211 147.77148 C 266.01334 149.58173 266.39569 151.98808 266.51172 153.11914 C 266.70667 155.01635 266.87907 155.38067 268.75391 157.83789 C 269.87166 159.30284 270.67185 160.50195 270.53125 160.50195 C 270.2044 160.50195 268.00108 158.18536 266.65039 156.42188 C 264.9798 154.24063 261.77475 154.98017 258.90234 158.20898 C 256.04872 161.41648 255.41943 164.07243 256.36133 168.95312 C 258.1405 178.17283 255.86592 183.76691 245.93555 194.58203 C 239.45547 201.63947 238.18947 203.65486 237.92188 207.34375 C 237.15138 217.97137 245.45237 225.70289 285.05664 251.24414 C 298.97513 260.22033 304.68748 264.9847 309.8457 271.92383 C 313.81674 277.26585 313.97706 277.74001 317.00586 293.01758 C 320.12934 308.77265 321.5191 312.52369 326.7793 319.38281 C 334.98322 330.08046 337.52269 333.85338 340.57031 339.875 C 344.09004 346.82952 343.8202 347.58866 340.03516 341.38086 C 336.20324 335.09637 331.58097 328.33382 327.68359 323.30859 C 319.43054 312.66726 318.88346 311.29426 314.92773 291.28125 C 313.87982 285.97986 313.02344 281.57666 313.02344 281.49805 C 313.02344 281.42057 312.95179 281.42712 312.86523 281.51367 C 312.77872 281.60019 313.565 286.00116 314.61133 291.29492 C 318.54294 311.18552 319.38767 313.30219 327.50391 323.56641 C 336.37027 334.77925 342.78518 345.96579 347.08008 357.70312 C 347.82731 359.74831 348.03272 359.61407 347.80078 357.22266 C 347.55957 354.73614 346.44362 350.97018 344.41016 345.7793 C 342.55683 341.04831 342.24645 341.53077 347.58008 340.85352 C 351.80578 340.3169 363.94285 338.11555 369.98242 336.79102 C 371.65441 336.42429 373.23776 336.10445 373.50195 336.07422 C 374.18045 336.00139 374.00019 339.949 373.00391 346.99219 C 372.09395 353.42634 372.03627 354.74219 372.66602 354.74219 C 376.22973 354.74219 379.29161 335.18164 378.32617 318.58203 C 377.46984 303.85801 376.05463 299.33925 375.72656 310.28711 C 375.49858 317.899 374.92505 318.87513 367.90234 323.60547 C 366.31834 324.67243 363.65445 326.64495 361.98242 327.99023 C 356.54391 332.36606 353.45895 333.13592 348.0625 331.45898 C 334.32944 327.19133 324.8064 308.94525 324.89258 287.0625 C 324.93657 275.87317 326.44239 274.20936 338.62305 271.88477 C 371.67082 265.57784 405.22935 261.4431 414.35547 262.55273 C 426.35339 264.01152 436.1321 270.94455 444.41992 283.86914 C 449.80061 292.26011 450.72568 293.62109 451.03711 293.62109 C 451.2265 293.62109 453.14743 292.61479 455.30664 291.38281 C 457.46585 290.1508 459.29273 289.14258 459.36719 289.14258 C 459.44164 289.14258 461.14075 288.37109 463.14258 287.42969 C 465.1444 286.48824 467.43066 285.42382 468.22266 285.0625 L 469.66211 284.4043 L 470.06445 285.16016 C 470.28605 285.57507 470.88934 287.05648 471.4043 288.45312 C 474.57347 297.04845 477.84795 304.47346 478.05469 303.53516 C 478.16528 303.03286 477.46982 300.52586 474.6543 291.27539 C 473.07324 286.08081 469.87366 272.58874 469.77539 270.70117 C 469.73079 269.84129 469.71948 269.83482 469.60156 270.58789 C 469.53221 271.03066 470.28015 275.1855 471.26562 279.82227 C 473.06993 288.31135 473.2398 289.80977 472.0957 287.14062 C 468.77127 279.38507 466.78798 267.73396 468.04883 263.36914 C 469.5222 258.26863 473.63484 256.83946 486.89062 256.82812 C 504.77932 256.81074 530.2685 243.78998 546.26172 226.5 C 563.85066 207.48489 571.3733 187.24366 571.38086 158.90234 C 571.38335 150.42823 571.22127 147.83176 570.10938 138.42188 C 563.13796 79.424281 522.74911 31.813003 467.90234 17.939453 C 456.93394 15.16498 445.60693 13.699161 434.72656 13.572266 z M 398.69141 16.945312 C 398.53508 16.788991 392.86459 18.73392 390.7832 19.658203 C 388.62381 20.617069 389.4829 20.470922 392.13477 19.427734 C 393.41535 18.923999 395.44333 18.189278 396.64258 17.794922 C 397.84182 17.400604 398.76435 17.018257 398.69141 16.945312 z M 389.07812 20.453125 C 388.9336 20.308596 384.84724 21.984966 383.57422 22.710938 C 382.30146 23.436758 382.7357 23.289489 386.23438 21.814453 C 387.86229 21.128167 389.14124 20.516243 389.07812 20.453125 z M 382.30273 23.253906 C 382.12672 23.253906 381.04633 23.744846 379.90234 24.34375 C 378.75832 24.942692 377.96645 25.431641 378.14258 25.431641 C 378.31859 25.431641 379.39898 24.942692 380.54297 24.34375 C 381.68696 23.744846 382.47886 23.253906 382.30273 23.253906 z M 376.38281 26.287109 C 376.38281 26.197724 372.74674 27.926172 368.30273 30.126953 C 363.85873 32.327734 358.42268 34.763352 356.22266 35.539062 C 354.02267 36.314735 352.36684 36.957411 352.54297 36.96875 C 354.12837 37.071893 376.38281 27.100653 376.38281 26.287109 z M 351.74219 36.992188 C 350.75849 36.989164 346.35791 39.164343 343.26172 41.183594 C 337.86637 44.702334 336.04063 47.14467 332.5293 55.542969 C 327.79249 66.872367 325.68443 69.458617 318.03516 73.314453 C 315.89428 74.393659 310.47042 77.148694 305.98242 79.4375 C 297.53011 83.748051 295.14269 84.699033 288.38281 86.449219 C 286.18283 87.018794 284.57262 87.498554 284.80469 87.513672 C 285.4878 87.560727 291.49441 85.998573 294.7832 84.917969 C 296.47401 84.362378 301.44397 82.072534 305.98242 79.759766 C 310.47042 77.472736 316.04913 74.636256 318.37891 73.455078 C 326.14621 69.517037 327.6066 67.689608 333.05078 55.109375 C 337.2919 45.309173 340.91995 41.578489 349.65039 38.037109 C 351.06548 37.463074 352.00638 36.99317 351.74219 36.992188 z M 344.41797 50.644531 C 343.99444 50.653798 343.39502 51.024688 342.57812 51.767578 C 341.98285 52.308806 341.80014 52.334545 341.19727 51.966797 C 340.58135 51.590961 340.43242 51.628099 339.89062 52.289062 C 338.17612 54.380691 338.30153 58.045359 340.125 59.158203 C 340.84254 59.596099 340.58899 60.173332 339.39844 60.814453 C 337.05437 62.076815 336.78231 64.405522 338.36914 69.623047 C 339.25635 72.540804 339.39309 73.466481 339.4082 76.662109 L 339.42188 80.34375 L 338.01367 83.382812 C 335.92465 87.889635 335.78947 91.001585 337.65625 91.652344 C 338.57539 91.972734 338.60695 92.046594 338.41797 93.425781 C 338.2528 94.631035 338.34482 95.024388 338.98242 95.855469 C 340.94547 98.414171 341.7506 99.205999 342.93945 99.746094 L 342.94141 99.746094 C 346.00543 101.13806 346.63919 100.4447 344.23242 98.333984 C 342.35256 96.685354 341.63457 95.123248 342.14258 93.787109 C 342.58183 92.631746 342.89688 92.59339 345.73047 93.357422 C 348.0203 93.976508 349.05774 94.062991 353.29297 93.996094 C 357.5257 93.929196 358.43374 94.006215 359.89453 94.552734 C 363.6651 95.963519 365.70566 95.106931 363.17383 93.175781 C 361.58454 91.963573 360.45942 89.625836 359.74414 86.050781 C 359.39771 84.319493 358.96538 82.182722 358.7832 81.302734 C 358.32917 79.109739 357.2319 76.870766 355.46875 74.539062 C 352.41134 70.495686 354.50393 68.116537 360.0957 69.277344 C 364.15904 70.120897 371.44458 77.273949 372.55859 81.513672 C 373.17201 83.848135 374.48117 87.300109 375.29883 88.742188 C 379.91972 96.891605 380.62296 94.744569 377.78906 81.142578 C 376.4516 74.722937 376.22156 74.085412 374.47266 71.90625 C 373.51511 70.713091 372.86328 69.579662 372.86328 69.109375 C 372.86328 65.305545 353.72247 52.226716 347.49219 51.773438 C 345.79847 51.650225 345.24863 51.483606 344.99805 51.015625 C 344.86337 50.763979 344.67208 50.638971 344.41797 50.644531 z M 344.22461 51.425781 C 344.52189 51.378566 344.69603 51.542854 344.83398 51.902344 C 344.98222 52.288611 345.27895 52.372138 345.99805 52.228516 C 351.01446 51.22524 372.22266 65.044406 372.22266 69.316406 C 372.22266 69.937723 372.85958 70.947697 374.26953 72.5625 C 375.39768 73.854532 375.77579 74.84244 376.69531 78.910156 C 377.78057 83.710761 378.94336 90.212588 378.94336 91.480469 C 378.94336 94.296897 375.76471 89.498008 374.00391 84.023438 C 372.91782 80.646581 372.14659 79.038267 370.58984 76.896484 C 369.92075 75.975905 369.16319 74.923255 368.9043 74.556641 C 366.7367 71.484565 354.56828 64.425548 347.47656 62.126953 C 340.0956 59.734588 338.12443 57.607414 339.73047 53.763672 C 340.13227 52.802122 340.30953 52.672537 340.99219 52.84375 C 341.56528 52.987599 342.08977 52.811832 342.875 52.212891 C 343.50654 51.731209 343.92733 51.472997 344.22461 51.425781 z M 348.70508 73.535156 C 349.15736 73.515796 349.74221 73.595754 350.36523 73.798828 C 353.81723 74.924031 356.1022 77.805096 357.94922 83.365234 C 359.57785 88.267886 359.32998 89.239767 357.54102 84.96875 C 354.47748 77.654797 351.57533 74.173511 349.97852 75.896484 C 348.83521 77.130122 348.97618 77.787678 350.8125 79.796875 C 352.94669 82.132018 357.87022 92.130901 357.32227 93.017578 C 356.9592 93.604992 355.84709 93.346397 356.17969 92.751953 C 356.4068 92.346145 356.27016 91.820501 355.66211 90.751953 C 354.52296 88.750089 354.00618 88.303173 355.05273 90.224609 C 356.2019 92.334417 356.19956 92.3362 353.74219 92.390625 C 352.55353 92.416704 352.01497 92.492389 352.54297 92.556641 C 353.07097 92.620515 354.00706 92.766781 354.62305 92.882812 L 355.74219 93.09375 L 354.30273 93.333984 L 354.30273 93.335938 C 350.75463 93.929512 346.57845 93.333091 343.10352 91.738281 C 341.16617 90.849147 340.94702 90.88354 340.17188 92.197266 C 339.32277 93.636018 339.14068 93.440944 339.42188 91.396484 C 339.69154 89.435817 340.22903 88.824219 341.68555 88.824219 C 342.60892 88.824219 342.78198 88.709601 342.78516 88.103516 C 342.79075 86.816057 344.32095 84.050113 346.02344 82.25 L 347.68945 80.488281 L 346.86328 79.617188 C 345.69975 78.385931 345.49008 76.136999 346.55273 76.285156 C 347.65972 76.439588 348.66847 75.1002 348.00195 74.359375 C 347.56865 73.877792 347.95128 73.567424 348.70508 73.535156 z M 351.08008 75.894531 C 351.15865 75.887615 351.23509 75.897135 351.30469 75.923828 C 352.88937 76.531916 358.14258 86.447275 358.14258 88.830078 C 358.14258 89.551212 357.13632 89.704793 356.62109 89.0625 C 356.44459 88.842531 355.50126 87.006434 354.52539 84.982422 C 353.48001 82.814258 352.14964 80.625459 351.28711 79.652344 C 350.48192 78.743972 349.82227 77.747421 349.82227 77.4375 C 349.82227 76.752867 350.5301 75.942948 351.08008 75.894531 z M 566.125 111.38281 L 566.30273 112.18359 C 566.40028 112.62361 566.9443 114.74509 567.51172 116.89844 C 568.0791 119.05182 568.58859 120.67884 568.64453 120.51367 C 568.76117 120.16921 566.97727 113.33422 566.46484 112.16211 L 566.125 111.38281 z M 276.46875 113.51953 C 275.81784 113.61205 275.97178 113.86677 277.98438 116.04102 C 280.22957 118.46649 280.58575 118.99614 281.47266 121.22266 C 282.50511 123.81469 283.43202 122.05074 282.5625 119.14844 C 281.85698 116.79372 278.067 113.29238 276.46875 113.51953 z M 278.13281 114.74219 C 278.83289 114.74219 281.58774 117.83126 281.81641 118.87305 C 282.12485 120.27729 281.90651 120.36868 281.19531 119.13281 C 280.86925 118.56622 279.96582 117.34785 279.1875 116.42383 C 278.40941 115.49985 277.93477 114.74219 278.13281 114.74219 z M 298.5625 118.4375 C 298.265 118.38392 297.71615 118.90148 296.97656 120.18359 C 294.181 125.02982 291.10023 127.30009 286.73242 127.73047 C 284.51153 127.9493 283.69835 128.63111 285.26172 128.96484 C 285.65774 129.04951 286.27117 129.18676 286.62305 129.26953 L 286.62305 129.26758 C 290.42185 130.16064 295.45643 127.11427 297.69531 122.56641 C 298.85941 120.20182 299.05833 118.5268 298.5625 118.4375 z M 297.41602 121.07617 C 297.71662 120.95257 297.62707 121.55912 297.01953 122.75 C 296.00613 124.73637 293.96613 126.78616 292.08789 127.70508 C 290.22473 128.6167 287.10352 129.14336 287.10352 128.54688 C 287.10352 128.34618 287.38502 128.18359 287.73047 128.18359 C 290.18848 128.18359 294.23083 125.38038 296.47852 122.11914 C 296.91385 121.48751 297.23565 121.15033 297.41602 121.07617 z M 570.07422 127.02344 C 570.00056 127.0971 570.27246 129.12295 570.67773 131.52344 C 571.08305 133.92393 571.4658 135.7315 571.5293 135.54102 C 571.67247 135.11162 570.25904 126.83862 570.07422 127.02344 z M 273.48438 132.36719 C 272.48718 133.83199 271.22065 134.8356 269.11133 135.90039 C 262.99042 138.99019 262.28336 140.66574 263.77344 148.58203 C 264.56037 152.76264 264.53588 152.90082 262.875 153.39844 C 261.0863 153.93434 258.23103 156.07801 256.93359 157.85938 C 254.14094 161.69363 253.66847 164.1293 254.65039 169.65625 C 254.9794 171.50811 255.3042 172.8589 255.37109 172.6582 C 255.43799 172.45762 255.24207 171.00305 254.93555 169.42578 C 253.40711 161.55673 256.994 155.37294 264.30273 153.27734 C 264.85005 153.12049 264.80733 152.24837 264.0625 148.41211 C 262.61056 140.93371 263.37199 139.10358 269.15625 136.19531 C 271.00099 135.26779 272.66193 133.89957 273.79102 132.52148 L 273.48438 132.36719 z M 571.99805 138.54102 C 571.92098 138.61808 572.11441 140.96315 572.42773 143.75195 C 572.85784 147.58061 572.99843 151.44851 573.00977 159.54297 C 573.01695 165.54614 573.11406 169.06619 573.23047 167.54297 C 573.54455 163.44229 573.52155 154.14792 573.18555 149.46289 C 572.80113 144.10163 572.17757 138.36149 571.99805 138.54102 z M 436.33594 155.10547 C 436.20617 155.11912 436.04903 155.14493 435.86523 155.18164 C 430.0372 156.34547 421.46198 164.68319 425.42969 165.32812 C 426.08974 165.4355 426.72993 165.62446 426.85352 165.74805 C 427.64552 166.54005 428.73327 165.72 429.82227 163.50977 C 431.31658 160.47685 432.03109 159.56033 434.5625 157.42188 C 436.79935 155.53221 437.24432 155.00988 436.33594 155.10547 z M 459.92578 156.85547 C 459.95122 156.86364 459.9965 156.89228 460.0625 156.94141 C 461.78491 158.22342 466.27864 163.50069 467.18164 165.30273 C 469.89636 170.72016 466.81203 178.70102 458.33984 188.18359 C 448.9597 198.68237 437.79657 204.12999 421.02344 206.39453 C 408.96531 208.02252 400.29137 205.36881 398.62891 199.54297 C 398.48098 199.02446 398.72989 199.25032 399.33594 200.18359 C 404.13669 207.57699 417.71275 208.07315 437.16016 201.56836 C 447.30698 198.17449 456.74025 190.40547 463.88477 179.55664 C 469.69122 170.73965 469.30118 166.79542 461.86133 159.08594 C 460.53403 157.71052 459.74769 156.79829 459.92578 156.85547 z M 446.75 160.52148 C 435.06526 160.23808 426.40535 172.30903 434.57227 181.08789 C 437.89345 184.65792 438.11057 185.69611 435.99219 187.84375 C 433.12239 190.75323 428.20637 191.35538 423.75586 189.3418 C 421.18004 188.17638 421.37159 188.18546 414.86328 188.86328 C 412.19278 189.14138 412.30564 188.78106 415.50195 186.83789 C 419.01941 184.69959 419.72763 184.51779 424.19727 184.61719 C 427.58837 184.6927 428.03437 184.76822 428.2207 185.29883 C 428.51732 186.1448 428.86328 185.2086 428.86328 183.55664 C 428.86328 182.32682 425.26644 174.47366 424.11523 173.18945 C 422.28984 171.15308 420.16454 171.32968 418.01758 173.69336 C 414.45042 177.62055 412.50082 179.34186 409.65234 181.08203 C 400.98619 186.37628 405.36236 191.91391 417.17188 190.59766 L 420.76562 190.19727 L 423.13477 191.26953 C 431.04653 194.85335 440.46226 189.98834 440.44336 182.32422 C 440.43837 180.08727 439.94839 178.62198 437.51562 173.56641 C 435.38314 169.13472 434.90489 167.27859 435.7207 166.60156 C 436.44206 166.00289 436.48022 166.09808 436.8457 169.31445 C 437.47919 174.88956 439.30794 175.50627 441.50195 170.88281 C 443.06006 167.5992 443.33363 166.17358 442.73828 164.41992 C 442.11266 162.57589 442.10229 162.58228 446.08984 162.58984 C 449.65205 162.59733 451.72639 163.06978 454.22266 164.44141 C 455.73772 165.27396 455.72713 165.36391 453.97656 166.62109 C 450.92618 168.81171 449.28699 171.6783 446.92188 178.95703 C 443.06131 190.83798 436.31481 196.95118 427.00977 196.99805 C 417.32083 197.04692 415.51194 198.85723 424.77148 199.23828 C 436.83453 199.73468 437.16996 199.66178 443.10352 195.21094 C 444.86353 193.89071 447.45529 192.14168 448.86328 191.32617 C 465.7397 181.55175 467.25807 166.61805 451.90234 161.44531 C 450.14992 160.85499 448.41925 160.56197 446.75 160.52148 z M 446.44141 161.27148 C 452.50026 161.39779 458.77871 164.3798 461.08398 169.07422 C 464.38344 175.79324 459.23557 184.50172 448.01562 191.17969 C 446.4941 192.08526 444.4074 193.44316 443.37695 194.19922 C 440.95299 195.97764 440.25049 196.33018 441.66211 195.05859 C 443.4804 193.42066 446.14781 191.44389 448.54297 189.95898 C 459.44853 183.19775 464.00678 173.67798 459.08984 167.93359 C 457.40777 165.96847 455.2373 166.65709 452.05664 170.16211 L 450.51172 171.86328 L 451.28711 170.45508 C 451.97657 169.20334 453.17045 168.00423 455.74219 165.97852 C 456.715 165.21222 456.56838 165.0347 453.87305 163.70117 C 449.12362 161.35152 440.45964 161.13508 441.66992 163.39648 C 442.23198 164.4467 442.01 164.79941 441.24219 164.07812 C 440.28582 163.17947 439.76055 163.20225 437.73242 164.22461 C 435.54551 165.32695 436.40876 164.2235 438.70898 162.97656 C 440.97786 161.7466 443.68738 161.21407 446.44141 161.27148 z M 434.5293 166.72461 C 434.66435 166.75397 434.64647 167.10797 434.42773 167.67773 C 434.22712 168.20044 433.66211 168.38187 433.66211 167.92383 C 433.66211 167.78149 433.87429 167.38659 434.13281 167.04492 C 434.31267 166.80712 434.44826 166.70699 434.5293 166.72461 z M 572.7793 170.43945 C 572.76849 170.43111 572.75768 170.43405 572.74414 170.44922 C 572.67875 170.52254 572.5456 171.80676 572.44922 173.30273 C 572.32185 175.27909 572.34839 175.63027 572.54492 174.58398 C 572.80323 173.21024 572.94133 170.56466 572.7793 170.43945 z M 421.01172 172.37891 C 421.31843 172.35304 421.6363 172.38777 421.98242 172.47461 C 422.84442 172.69099 423.08713 173.30273 422.31055 173.30273 C 422.05055 173.30273 421.59269 173.69959 421.29297 174.18359 C 420.23035 175.89927 418.7589 177.20904 416.86328 178.12891 C 411.898 180.53824 406.7832 184.57852 406.7832 186.08984 C 406.7832 188.39331 410.92302 189.85575 415.82812 189.28516 C 420.46625 188.74559 421.41817 188.8262 423.88477 189.98047 C 433.65258 194.55139 441.9421 186.40054 437.56836 176.52539 C 435.92668 172.81835 436.04678 172.32594 437.75781 175.75 C 441.79605 183.83105 439.04238 190.33824 430.95117 191.83398 C 429.91392 192.02561 428.91207 192.16538 428.72461 192.14648 C 426.65331 191.91941 424.71317 191.39668 423.33398 190.69531 C 421.47249 189.74881 420.72793 189.69377 415.09961 190.0918 C 405.09017 190.79959 402.46227 185.9754 410.3125 181.30273 C 413.34187 179.4996 415.37283 177.72206 418.08203 174.49805 C 419.27168 173.08228 420.09159 172.4565 421.01172 172.37891 z M 255.64453 173.78516 C 255.59489 173.76554 255.51428 174.17445 255.38672 175.05078 C 254.55122 180.78603 251.62083 185.81331 245.01758 192.83594 C 239.4331 198.77512 236.50505 202.93095 236.57422 204.82227 C 236.59123 205.28443 236.67336 205.21274 236.86914 204.56055 C 237.74123 201.65424 239.42821 199.29445 244.45898 193.94336 C 251.82018 186.11346 255.86716 179.03317 255.70312 174.27539 C 255.69235 173.96332 255.67432 173.79693 255.64453 173.78516 z M 572.0293 177.38672 C 571.96788 177.47858 571.80633 178.22295 571.56836 179.54297 C 571.2194 181.47899 570.57638 184.55104 570.13867 186.36914 C 569.701 188.18721 569.3561 189.77075 569.375 189.88867 C 569.53181 190.95144 571.75144 180.955 572.02734 177.94336 C 572.06693 177.51135 572.06615 177.3316 572.0293 177.38672 z M 569.32422 190.46289 C 569.31428 190.26458 568.55175 192.26234 567.62891 194.90234 C 558.12755 222.08452 535.27083 244.34114 506.46289 254.46094 C 503.82289 255.38832 501.82501 256.15272 502.02344 256.16406 C 502.59698 256.19286 510.35676 253.46814 513.3418 252.18945 C 535.51783 242.68995 555.1555 223.83153 564.83789 202.73633 C 566.4248 199.27882 569.36315 191.23917 569.32422 190.46289 z M 236.31836 205.46289 L 236.27539 208.02344 C 236.1529 215.21697 239.76324 221.46694 247.74023 227.87305 C 252.54061 231.72805 272.12193 245.25962 284.54297 253.30469 C 301.00863 263.96942 311.00383 273.63988 312.21094 280.07422 C 312.32772 280.69818 312.49592 281.13689 312.58398 281.04883 C 312.95653 280.67628 311.8966 277.96038 310.5918 275.94336 C 305.37412 267.87762 299.16897 262.44392 283.74219 252.43555 C 275.5171 247.09942 263.95369 239.22494 255.26172 233.03906 C 241.01377 222.89904 237.1786 217.93308 236.55078 208.82227 L 236.31836 205.46289 z M 501.23633 256.29688 C 501.15752 256.28421 500.9274 256.31308 500.54297 256.38281 C 499.92698 256.49446 499.13508 256.71103 498.7832 256.86523 C 498.34387 257.05761 498.49289 257.08282 499.26172 256.94336 C 499.87774 256.83171 500.67156 256.61319 501.02344 256.45898 C 501.24312 256.3628 501.31514 256.30954 501.23633 256.29688 z M 497.50195 257.21094 C 497.14993 257.20693 496.14171 257.38884 495.26172 257.61523 C 494.38184 257.8414 493.95086 258.02942 494.30273 258.0332 C 494.65472 258.03721 495.66294 257.85688 496.54297 257.63086 C 497.42284 257.40469 497.85383 257.21472 497.50195 257.21094 z M 492.18164 258.13867 C 491.89164 258.13792 491.59089 258.15651 491.34766 258.19336 C 490.86127 258.26668 491.18251 258.32687 492.0625 258.33008 C 492.94313 258.33235 493.34087 258.27323 492.94727 258.19727 C 492.75048 258.15966 492.47164 258.13943 492.18164 258.13867 z M 486.75391 258.45898 C 486.05791 258.45889 485.34836 258.47449 484.79492 258.50586 L 484.79492 258.50391 C 483.68801 258.56627 484.51105 258.61914 486.62305 258.61914 C 488.73501 258.6199 489.63986 258.56936 488.63477 258.50586 C 488.1322 258.47487 487.44991 258.45908 486.75391 258.45898 z M 479.74219 258.77734 C 479.30719 258.77734 478.87296 258.7955 478.54297 258.83008 C 477.88295 258.89924 478.42219 258.95508 479.74219 258.95508 C 481.062 258.95508 481.60334 258.89924 480.94336 258.83008 C 480.61335 258.7955 480.17719 258.77734 479.74219 258.77734 z M 473.90625 259.79492 C 473.9147 259.76776 473.72362 259.81334 473.3418 259.9082 C 470.76956 260.54743 469.42998 262.9246 469.31055 267.0625 L 469.23242 269.7832 L 469.48047 267.0625 C 469.84293 263.09846 470.84953 261.25684 473.27734 260.11523 C 473.69001 259.92116 473.8978 259.82209 473.90625 259.79492 z M 376.75586 308.38086 C 376.95392 308.47205 377.18275 310.84121 377.5332 315.22266 C 378.31568 325.00566 377.82754 337.6251 376.58789 339.63086 C 375.55604 341.30043 375.01434 340.04148 375.20898 336.42383 C 375.3156 334.44381 375.6524 327.00392 375.95703 319.89062 C 376.29861 311.91315 376.50121 308.26361 376.75586 308.38086 z "
     style="fill:#ddb99c;stroke-width:3.77952"
     id="path332" />
</svg>
